<?xml version="1.0" encoding="utf-8" standalone="no"?>
<!DOCTYPE svg PUBLIC "-//W3C//DTD SVG 1.1//EN"
  "http://www.w3.org/Graphics/SVG/1.1/DTD/svg11.dtd">
<svg xmlns:xlink="http://www.w3.org/1999/xlink" width="896.115937pt" height="544.960896pt" viewBox="0 0 896.115937 544.960896" xmlns="http://www.w3.org/2000/svg" version="1.1">
 <metadata>
  <rdf:RDF xmlns:dc="http://purl.org/dc/elements/1.1/" xmlns:cc="http://creativecommons.org/ns#" xmlns:rdf="http://www.w3.org/1999/02/22-rdf-syntax-ns#">
   <cc:Work>
    <dc:type rdf:resource="http://purl.org/dc/dcmitype/StillImage"/>
    <dc:date>2026-01-06T10:17:01.981647</dc:date>
    <dc:format>image/svg+xml</dc:format>
    <dc:creator>
     <cc:Agent>
      <dc:title>Matplotlib v3.10.6, https://matplotlib.org/</dc:title>
     </cc:Agent>
    </dc:creator>
   </cc:Work>
  </rdf:RDF>
 </metadata>
 <defs>
  <style type="text/css">*{stroke-linejoin: round; stroke-linecap: butt}</style>
 </defs>
 <g id="figure_1">
  <g id="patch_1">
   <path d="M -0 544.960896 
L 896.115937 544.960896 
L 896.115937 0 
L -0 0 
z
" style="fill: #ffffff"/>
  </g>
  <g id="axes_1">
   <g id="patch_2">
    <path d="M 51.915938 495.127687 
L 888.915938 495.127687 
L 888.915938 51.607687 
L 51.915938 51.607687 
z
" style="fill: #ffffff"/>
   </g>
   <g id="PathCollection_1">
    <path d="M 89.961392 459.870359 
C 91.585423 459.870359 93.143156 459.225125 94.291519 458.076762 
C 95.439882 456.928399 96.085116 455.370666 96.085116 453.746635 
C 96.085116 452.122604 95.439882 450.564871 94.291519 449.416508 
C 93.143156 448.268145 91.585423 447.622911 89.961392 447.622911 
C 88.337361 447.622911 86.779628 448.268145 85.631265 449.416508 
C 84.482902 450.564871 83.837668 452.122604 83.837668 453.746635 
C 83.837668 455.370666 84.482902 456.928399 85.631265 458.076762 
C 86.779628 459.225125 88.337361 459.870359 89.961392 459.870359 
z
" clip-path="url(#p53efa00ec3)" style="fill: #87ceeb; fill-opacity: 0.6; stroke: #87ceeb; stroke-opacity: 0.6"/>
    <path d="M 116.199637 203.239494 
C 117.823667 203.239494 119.3814 202.59426 120.529764 201.445897 
C 121.678127 200.297533 122.323361 198.7398 122.323361 197.11577 
C 122.323361 195.491739 121.678127 193.934006 120.529764 192.785643 
C 119.3814 191.637279 117.823667 190.992045 116.199637 190.992045 
C 114.575606 190.992045 113.017873 191.637279 111.86951 192.785643 
C 110.721146 193.934006 110.075912 195.491739 110.075912 197.11577 
C 110.075912 198.7398 110.721146 200.297533 111.86951 201.445897 
C 113.017873 202.59426 114.575606 203.239494 116.199637 203.239494 
z
" clip-path="url(#p53efa00ec3)" style="fill: #4169e1; fill-opacity: 0.6; stroke: #4169e1; stroke-opacity: 0.6"/>
    <path d="M 142.437881 176.982937 
C 144.061912 176.982937 145.619645 176.337703 146.768008 175.18934 
C 147.916371 174.040977 148.561605 172.483244 148.561605 170.859213 
C 148.561605 169.235182 147.916371 167.677449 146.768008 166.529086 
C 145.619645 165.380723 144.061912 164.735489 142.437881 164.735489 
C 140.81385 164.735489 139.256117 165.380723 138.107754 166.529086 
C 136.959391 167.677449 136.314157 169.235182 136.314157 170.859213 
C 136.314157 172.483244 136.959391 174.040977 138.107754 175.18934 
C 139.256117 176.337703 140.81385 176.982937 142.437881 176.982937 
z
" clip-path="url(#p53efa00ec3)" style="fill: #4169e1; fill-opacity: 0.6; stroke: #4169e1; stroke-opacity: 0.6"/>
    <path d="M 168.676126 182.37812 
C 170.300156 182.37812 171.857889 181.732886 173.006253 180.584523 
C 174.154616 179.43616 174.79985 177.878426 174.79985 176.254396 
C 174.79985 174.630365 174.154616 173.072632 173.006253 171.924269 
C 171.857889 170.775906 170.300156 170.130671 168.676126 170.130671 
C 167.052095 170.130671 165.494362 170.775906 164.345999 171.924269 
C 163.197635 173.072632 162.552401 174.630365 162.552401 176.254396 
C 162.552401 177.878426 163.197635 179.43616 164.345999 180.584523 
C 165.494362 181.732886 167.052095 182.37812 168.676126 182.37812 
z
" clip-path="url(#p53efa00ec3)" style="fill: #4169e1; fill-opacity: 0.6; stroke: #4169e1; stroke-opacity: 0.6"/>
    <path d="M 194.91437 157.2006 
C 196.538401 157.2006 198.096134 156.555366 199.244497 155.407003 
C 200.39286 154.25864 201.038094 152.700906 201.038094 151.076876 
C 201.038094 149.452845 200.39286 147.895112 199.244497 146.746749 
C 198.096134 145.598386 196.538401 144.953151 194.91437 144.953151 
C 193.290339 144.953151 191.732606 145.598386 190.584243 146.746749 
C 189.43588 147.895112 188.790646 149.452845 188.790646 151.076876 
C 188.790646 152.700906 189.43588 154.25864 190.584243 155.407003 
C 191.732606 156.555366 193.290339 157.2006 194.91437 157.2006 
z
" clip-path="url(#p53efa00ec3)" style="fill: #000080; fill-opacity: 0.6; stroke: #000080; stroke-opacity: 0.6"/>
    <path d="M 221.152615 144.072322 
C 222.776645 144.072322 224.334379 143.427088 225.482742 142.278724 
C 226.631105 141.130361 227.276339 139.572628 227.276339 137.948597 
C 227.276339 136.324567 226.631105 134.766833 225.482742 133.61847 
C 224.334379 132.470107 222.776645 131.824873 221.152615 131.824873 
C 219.528584 131.824873 217.970851 132.470107 216.822488 133.61847 
C 215.674124 134.766833 215.02889 136.324567 215.02889 137.948597 
C 215.02889 139.572628 215.674124 141.130361 216.822488 142.278724 
C 217.970851 143.427088 219.528584 144.072322 221.152615 144.072322 
z
" clip-path="url(#p53efa00ec3)" style="fill: #000080; fill-opacity: 0.6; stroke: #000080; stroke-opacity: 0.6"/>
    <path d="M 247.390859 146.050555 
C 249.01489 146.050555 250.572623 145.405321 251.720986 144.256958 
C 252.869349 143.108595 253.514583 141.550862 253.514583 139.926831 
C 253.514583 138.3028 252.869349 136.745067 251.720986 135.596704 
C 250.572623 134.448341 249.01489 133.803107 247.390859 133.803107 
C 245.766828 133.803107 244.209095 134.448341 243.060732 135.596704 
C 241.912369 136.745067 241.267135 138.3028 241.267135 139.926831 
C 241.267135 141.550862 241.912369 143.108595 243.060732 144.256958 
C 244.209095 145.405321 245.766828 146.050555 247.390859 146.050555 
z
" clip-path="url(#p53efa00ec3)" style="fill: #000080; fill-opacity: 0.6; stroke: #000080; stroke-opacity: 0.6"/>
    <path d="M 273.629104 143.892482 
C 275.253134 143.892482 276.810868 143.247248 277.959231 142.098885 
C 279.107594 140.950522 279.752828 139.392789 279.752828 137.768758 
C 279.752828 136.144727 279.107594 134.586994 277.959231 133.438631 
C 276.810868 132.290268 275.253134 131.645034 273.629104 131.645034 
C 272.005073 131.645034 270.44734 132.290268 269.298977 133.438631 
C 268.150614 134.586994 267.505379 136.144727 267.505379 137.768758 
C 267.505379 139.392789 268.150614 140.950522 269.298977 142.098885 
C 270.44734 143.247248 272.005073 143.892482 273.629104 143.892482 
z
" clip-path="url(#p53efa00ec3)" style="fill: #000080; fill-opacity: 0.6; stroke: #000080; stroke-opacity: 0.6"/>
    <path d="M 299.867348 145.511037 
C 301.491379 145.511037 303.049112 144.865803 304.197475 143.71744 
C 305.345838 142.569077 305.991073 141.011344 305.991073 139.387313 
C 305.991073 137.763282 305.345838 136.205549 304.197475 135.057186 
C 303.049112 133.908823 301.491379 133.263588 299.867348 133.263588 
C 298.243317 133.263588 296.685584 133.908823 295.537221 135.057186 
C 294.388858 136.205549 293.743624 137.763282 293.743624 139.387313 
C 293.743624 141.011344 294.388858 142.569077 295.537221 143.71744 
C 296.685584 144.865803 298.243317 145.511037 299.867348 145.511037 
z
" clip-path="url(#p53efa00ec3)" style="fill: #000080; fill-opacity: 0.6; stroke: #000080; stroke-opacity: 0.6"/>
    <path d="M 326.105593 144.971519 
C 327.729623 144.971519 329.287357 144.326285 330.43572 143.177922 
C 331.584083 142.029558 332.229317 140.471825 332.229317 138.847795 
C 332.229317 137.223764 331.584083 135.666031 330.43572 134.517668 
C 329.287357 133.369304 327.729623 132.72407 326.105593 132.72407 
C 324.481562 132.72407 322.923829 133.369304 321.775466 134.517668 
C 320.627103 135.666031 319.981868 137.223764 319.981868 138.847795 
C 319.981868 140.471825 320.627103 142.029558 321.775466 143.177922 
C 322.923829 144.326285 324.481562 144.971519 326.105593 144.971519 
z
" clip-path="url(#p53efa00ec3)" style="fill: #000080; fill-opacity: 0.6; stroke: #000080; stroke-opacity: 0.6"/>
    <path d="M 352.343837 146.410234 
C 353.967868 146.410234 355.525601 145.765 356.673964 144.616637 
C 357.822327 143.468274 358.467562 141.910541 358.467562 140.28651 
C 358.467562 138.662479 357.822327 137.104746 356.673964 135.956383 
C 355.525601 134.80802 353.967868 134.162786 352.343837 134.162786 
C 350.719807 134.162786 349.162073 134.80802 348.01371 135.956383 
C 346.865347 137.104746 346.220113 138.662479 346.220113 140.28651 
C 346.220113 141.910541 346.865347 143.468274 348.01371 144.616637 
C 349.162073 145.765 350.719807 146.410234 352.343837 146.410234 
z
" clip-path="url(#p53efa00ec3)" style="fill: #000080; fill-opacity: 0.6; stroke: #000080; stroke-opacity: 0.6"/>
    <path d="M 378.582082 141.734409 
C 380.206112 141.734409 381.763846 141.089175 382.912209 139.940812 
C 384.060572 138.792449 384.705806 137.234716 384.705806 135.610685 
C 384.705806 133.986654 384.060572 132.428921 382.912209 131.280558 
C 381.763846 130.132195 380.206112 129.48696 378.582082 129.48696 
C 376.958051 129.48696 375.400318 130.132195 374.251955 131.280558 
C 373.103592 132.428921 372.458357 133.986654 372.458357 135.610685 
C 372.458357 137.234716 373.103592 138.792449 374.251955 139.940812 
C 375.400318 141.089175 376.958051 141.734409 378.582082 141.734409 
z
" clip-path="url(#p53efa00ec3)" style="fill: #000080; fill-opacity: 0.6; stroke: #000080; stroke-opacity: 0.6"/>
    <path d="M 404.820326 141.582978 
C 406.444357 141.582978 408.00209 140.937744 409.150453 139.789381 
C 410.298816 138.641018 410.944051 137.083284 410.944051 135.459254 
C 410.944051 133.835223 410.298816 132.27749 409.150453 131.129127 
C 408.00209 129.980764 406.444357 129.335529 404.820326 129.335529 
C 403.196296 129.335529 401.638562 129.980764 400.490199 131.129127 
C 399.341836 132.27749 398.696602 133.835223 398.696602 135.459254 
C 398.696602 137.083284 399.341836 138.641018 400.490199 139.789381 
C 401.638562 140.937744 403.196296 141.582978 404.820326 141.582978 
z
" clip-path="url(#p53efa00ec3)" style="fill: #000080; fill-opacity: 0.6; stroke: #000080; stroke-opacity: 0.6"/>
    <path d="M 431.058571 151.8384 
C 432.682601 151.8384 434.240335 151.193166 435.388698 150.044802 
C 436.537061 148.896439 437.182295 147.338706 437.182295 145.714675 
C 437.182295 144.090645 436.537061 142.532912 435.388698 141.384548 
C 434.240335 140.236185 432.682601 139.590951 431.058571 139.590951 
C 429.43454 139.590951 427.876807 140.236185 426.728444 141.384548 
C 425.580081 142.532912 424.934846 144.090645 424.934846 145.714675 
C 424.934846 147.338706 425.580081 148.896439 426.728444 150.044802 
C 427.876807 151.193166 429.43454 151.8384 431.058571 151.8384 
z
" clip-path="url(#p53efa00ec3)" style="fill: #000080; fill-opacity: 0.6; stroke: #000080; stroke-opacity: 0.6"/>
    <path d="M 457.296815 150.938801 
C 458.920846 150.938801 460.478579 150.293567 461.626942 149.145204 
C 462.775305 147.996841 463.42054 146.439108 463.42054 144.815077 
C 463.42054 143.191046 462.775305 141.633313 461.626942 140.48495 
C 460.478579 139.336587 458.920846 138.691353 457.296815 138.691353 
C 455.672785 138.691353 454.115051 139.336587 452.966688 140.48495 
C 451.818325 141.633313 451.173091 143.191046 451.173091 144.815077 
C 451.173091 146.439108 451.818325 147.996841 452.966688 149.145204 
C 454.115051 150.293567 455.672785 150.938801 457.296815 150.938801 
z
" clip-path="url(#p53efa00ec3)" style="fill: #000080; fill-opacity: 0.6; stroke: #000080; stroke-opacity: 0.6"/>
    <path d="M 483.53506 157.23599 
C 485.15909 157.23599 486.716824 156.590756 487.865187 155.442393 
C 489.01355 154.29403 489.658784 152.736296 489.658784 151.112266 
C 489.658784 149.488235 489.01355 147.930502 487.865187 146.782139 
C 486.716824 145.633776 485.15909 144.988541 483.53506 144.988541 
C 481.911029 144.988541 480.353296 145.633776 479.204933 146.782139 
C 478.05657 147.930502 477.411335 149.488235 477.411335 151.112266 
C 477.411335 152.736296 478.05657 154.29403 479.204933 155.442393 
C 480.353296 156.590756 481.911029 157.23599 483.53506 157.23599 
z
" clip-path="url(#p53efa00ec3)" style="fill: #000080; fill-opacity: 0.6; stroke: #000080; stroke-opacity: 0.6"/>
    <path d="M 509.773304 160.294625 
C 511.397335 160.294625 512.955068 159.64939 514.103431 158.501027 
C 515.251794 157.352664 515.897029 155.794931 515.897029 154.1709 
C 515.897029 152.54687 515.251794 150.989136 514.103431 149.840773 
C 512.955068 148.69241 511.397335 148.047176 509.773304 148.047176 
C 508.149274 148.047176 506.59154 148.69241 505.443177 149.840773 
C 504.294814 150.989136 503.64958 152.54687 503.64958 154.1709 
C 503.64958 155.794931 504.294814 157.352664 505.443177 158.501027 
C 506.59154 159.64939 508.149274 160.294625 509.773304 160.294625 
z
" clip-path="url(#p53efa00ec3)" style="fill: #4169e1; fill-opacity: 0.6; stroke: #4169e1; stroke-opacity: 0.6"/>
    <path d="M 536.011549 161.194223 
C 537.635579 161.194223 539.193313 160.548989 540.341676 159.400626 
C 541.490039 158.252263 542.135273 156.694529 542.135273 155.070499 
C 542.135273 153.446468 541.490039 151.888735 540.341676 150.740372 
C 539.193313 149.592009 537.635579 148.946774 536.011549 148.946774 
C 534.387518 148.946774 532.829785 149.592009 531.681422 150.740372 
C 530.533059 151.888735 529.887824 153.446468 529.887824 155.070499 
C 529.887824 156.694529 530.533059 158.252263 531.681422 159.400626 
C 532.829785 160.548989 534.387518 161.194223 536.011549 161.194223 
z
" clip-path="url(#p53efa00ec3)" style="fill: #4169e1; fill-opacity: 0.6; stroke: #4169e1; stroke-opacity: 0.6"/>
    <path d="M 562.249793 166.951653 
C 563.873824 166.951653 565.431557 166.306419 566.57992 165.158055 
C 567.728283 164.009692 568.373518 162.451959 568.373518 160.827928 
C 568.373518 159.203898 567.728283 157.646165 566.57992 156.497801 
C 565.431557 155.349438 563.873824 154.704204 562.249793 154.704204 
C 560.625763 154.704204 559.068029 155.349438 557.919666 156.497801 
C 556.771303 157.646165 556.126069 159.203898 556.126069 160.827928 
C 556.126069 162.451959 556.771303 164.009692 557.919666 165.158055 
C 559.068029 166.306419 560.625763 166.951653 562.249793 166.951653 
z
" clip-path="url(#p53efa00ec3)" style="fill: #4169e1; fill-opacity: 0.6; stroke: #4169e1; stroke-opacity: 0.6"/>
    <path d="M 588.488038 171.809484 
C 590.112068 171.809484 591.669802 171.16425 592.818165 170.015887 
C 593.966528 168.867524 594.611762 167.30979 594.611762 165.68576 
C 594.611762 164.061729 593.966528 162.503996 592.818165 161.355633 
C 591.669802 160.20727 590.112068 159.562035 588.488038 159.562035 
C 586.864007 159.562035 585.306274 160.20727 584.157911 161.355633 
C 583.009548 162.503996 582.364313 164.061729 582.364313 165.68576 
C 582.364313 167.30979 583.009548 168.867524 584.157911 170.015887 
C 585.306274 171.16425 586.864007 171.809484 588.488038 171.809484 
z
" clip-path="url(#p53efa00ec3)" style="fill: #4169e1; fill-opacity: 0.6; stroke: #4169e1; stroke-opacity: 0.6"/>
    <path d="M 614.726282 184.223942 
C 616.350313 184.223942 617.908046 183.578708 619.056409 182.430345 
C 620.204772 181.281982 620.850007 179.724248 620.850007 178.100218 
C 620.850007 176.476187 620.204772 174.918454 619.056409 173.770091 
C 617.908046 172.621727 616.350313 171.976493 614.726282 171.976493 
C 613.102252 171.976493 611.544518 172.621727 610.396155 173.770091 
C 609.247792 174.918454 608.602558 176.476187 608.602558 178.100218 
C 608.602558 179.724248 609.247792 181.281982 610.396155 182.430345 
C 611.544518 183.578708 613.102252 184.223942 614.726282 184.223942 
z
" clip-path="url(#p53efa00ec3)" style="fill: #4169e1; fill-opacity: 0.6; stroke: #4169e1; stroke-opacity: 0.6"/>
    <path d="M 640.964527 182.244826 
C 642.588558 182.244826 644.146291 181.599591 645.294654 180.451228 
C 646.443017 179.302865 647.088251 177.745132 647.088251 176.121101 
C 647.088251 174.49707 646.443017 172.939337 645.294654 171.790974 
C 644.146291 170.642611 642.588558 169.997377 640.964527 169.997377 
C 639.340496 169.997377 637.782763 170.642611 636.6344 171.790974 
C 635.486037 172.939337 634.840802 174.49707 634.840802 176.121101 
C 634.840802 177.745132 635.486037 179.302865 636.6344 180.451228 
C 637.782763 181.599591 639.340496 182.244826 640.964527 182.244826 
z
" clip-path="url(#p53efa00ec3)" style="fill: #4169e1; fill-opacity: 0.6; stroke: #4169e1; stroke-opacity: 0.6"/>
    <path d="M 667.202771 207.433581 
C 668.826802 207.433581 670.384535 206.788346 671.532898 205.639983 
C 672.681261 204.49162 673.326496 202.933887 673.326496 201.309856 
C 673.326496 199.685825 672.681261 198.128092 671.532898 196.979729 
C 670.384535 195.831366 668.826802 195.186132 667.202771 195.186132 
C 665.578741 195.186132 664.021007 195.831366 662.872644 196.979729 
C 661.724281 198.128092 661.079047 199.685825 661.079047 201.309856 
C 661.079047 202.933887 661.724281 204.49162 662.872644 205.639983 
C 664.021007 206.788346 665.578741 207.433581 667.202771 207.433581 
z
" clip-path="url(#p53efa00ec3)" style="fill: #4169e1; fill-opacity: 0.6; stroke: #4169e1; stroke-opacity: 0.6"/>
    <path d="M 693.441016 209.592617 
C 695.065047 209.592617 696.62278 208.947382 697.771143 207.799019 
C 698.919506 206.650656 699.56474 205.092923 699.56474 203.468892 
C 699.56474 201.844862 698.919506 200.287128 697.771143 199.138765 
C 696.62278 197.990402 695.065047 197.345168 693.441016 197.345168 
C 691.816985 197.345168 690.259252 197.990402 689.110889 199.138765 
C 687.962526 200.287128 687.317292 201.844862 687.317292 203.468892 
C 687.317292 205.092923 687.962526 206.650656 689.110889 207.799019 
C 690.259252 208.947382 691.816985 209.592617 693.441016 209.592617 
z
" clip-path="url(#p53efa00ec3)" style="fill: #4169e1; fill-opacity: 0.6; stroke: #4169e1; stroke-opacity: 0.6"/>
    <path d="M 719.67926 218.94844 
C 721.303291 218.94844 722.861024 218.303206 724.009387 217.154843 
C 725.157751 216.00648 725.802985 214.448746 725.802985 212.824716 
C 725.802985 211.200685 725.157751 209.642952 724.009387 208.494589 
C 722.861024 207.346225 721.303291 206.700991 719.67926 206.700991 
C 718.05523 206.700991 716.497496 207.346225 715.349133 208.494589 
C 714.20077 209.642952 713.555536 211.200685 713.555536 212.824716 
C 713.555536 214.448746 714.20077 216.00648 715.349133 217.154843 
C 716.497496 218.303206 718.05523 218.94844 719.67926 218.94844 
z
" clip-path="url(#p53efa00ec3)" style="fill: #4169e1; fill-opacity: 0.6; stroke: #4169e1; stroke-opacity: 0.6"/>
    <path d="M 745.917505 250.434384 
C 747.541536 250.434384 749.099269 249.78915 750.247632 248.640786 
C 751.395995 247.492423 752.041229 245.93469 752.041229 244.310659 
C 752.041229 242.686629 751.395995 241.128895 750.247632 239.980532 
C 749.099269 238.832169 747.541536 238.186935 745.917505 238.186935 
C 744.293474 238.186935 742.735741 238.832169 741.587378 239.980532 
C 740.439015 241.128895 739.793781 242.686629 739.793781 244.310659 
C 739.793781 245.93469 740.439015 247.492423 741.587378 248.640786 
C 742.735741 249.78915 744.293474 250.434384 745.917505 250.434384 
z
" clip-path="url(#p53efa00ec3)" style="fill: #4169e1; fill-opacity: 0.6; stroke: #4169e1; stroke-opacity: 0.6"/>
    <path d="M 772.155749 282.819926 
C 773.77978 282.819926 775.337513 282.174692 776.485876 281.026329 
C 777.63424 279.877965 778.279474 278.320232 778.279474 276.696202 
C 778.279474 275.072171 777.63424 273.514438 776.485876 272.366075 
C 775.337513 271.217711 773.77978 270.572477 772.155749 270.572477 
C 770.531719 270.572477 768.973986 271.217711 767.825622 272.366075 
C 766.677259 273.514438 766.032025 275.072171 766.032025 276.696202 
C 766.032025 278.320232 766.677259 279.877965 767.825622 281.026329 
C 768.973986 282.174692 770.531719 282.819926 772.155749 282.819926 
z
" clip-path="url(#p53efa00ec3)" style="fill: #87ceeb; fill-opacity: 0.6; stroke: #87ceeb; stroke-opacity: 0.6"/>
    <path d="M 798.393994 301.711492 
C 800.018025 301.711492 801.575758 301.066258 802.724121 299.917895 
C 803.872484 298.769532 804.517718 297.211799 804.517718 295.587768 
C 804.517718 293.963737 803.872484 292.406004 802.724121 291.257641 
C 801.575758 290.109278 800.018025 289.464043 798.393994 289.464043 
C 796.769963 289.464043 795.21223 290.109278 794.063867 291.257641 
C 792.915504 292.406004 792.27027 293.963737 792.27027 295.587768 
C 792.27027 297.211799 792.915504 298.769532 794.063867 299.917895 
C 795.21223 301.066258 796.769963 301.711492 798.393994 301.711492 
z
" clip-path="url(#p53efa00ec3)" style="fill: #87ceeb; fill-opacity: 0.6; stroke: #87ceeb; stroke-opacity: 0.6"/>
    <path d="M 824.632238 339.674544 
C 826.256269 339.674544 827.814002 339.02931 828.962365 337.880947 
C 830.110729 336.732584 830.755963 335.174851 830.755963 333.55082 
C 830.755963 331.926789 830.110729 330.369056 828.962365 329.220693 
C 827.814002 328.07233 826.256269 327.427096 824.632238 327.427096 
C 823.008208 327.427096 821.450475 328.07233 820.302111 329.220693 
C 819.153748 330.369056 818.508514 331.926789 818.508514 333.55082 
C 818.508514 335.174851 819.153748 336.732584 820.302111 337.880947 
C 821.450475 339.02931 823.008208 339.674544 824.632238 339.674544 
z
" clip-path="url(#p53efa00ec3)" style="fill: #87ceeb; fill-opacity: 0.6; stroke: #87ceeb; stroke-opacity: 0.6"/>
    <path d="M 850.870483 406.064906 
C 852.494514 406.064906 854.052247 405.419672 855.20061 404.271308 
C 856.348973 403.122945 856.994207 401.565212 856.994207 399.941181 
C 856.994207 398.317151 856.348973 396.759418 855.20061 395.611054 
C 854.052247 394.462691 852.494514 393.817457 850.870483 393.817457 
C 849.246452 393.817457 847.688719 394.462691 846.540356 395.611054 
C 845.391993 396.759418 844.746759 398.317151 844.746759 399.941181 
C 844.746759 401.565212 845.391993 403.122945 846.540356 404.271308 
C 847.688719 405.419672 849.246452 406.064906 850.870483 406.064906 
z
" clip-path="url(#p53efa00ec3)" style="fill: #87ceeb; fill-opacity: 0.6; stroke: #87ceeb; stroke-opacity: 0.6"/>
   </g>
   <g id="matplotlib.axis_1">
    <g id="xtick_1">
     <g id="line2d_1">
      <path d="M 89.961392 495.127687 
L 89.961392 51.607687 
" clip-path="url(#p53efa00ec3)" style="fill: none; stroke-dasharray: 2.96,1.28; stroke-dashoffset: 0; stroke: #b0b0b0; stroke-opacity: 0.7; stroke-width: 0.8"/>
     </g>
     <g id="line2d_2">
      <defs>
       <path id="m5b7f2b5ceb" d="M 0 0 
L 0 3.5 
" style="stroke: #000000; stroke-width: 0.8"/>
      </defs>
      <g>
       <use xlink:href="#m5b7f2b5ceb" x="89.961392" y="495.127687" style="stroke: #000000; stroke-width: 0.8"/>
      </g>
     </g>
     <g id="text_1">
      <!-- 0 -->
      <g transform="translate(82.894081 513.951397) rotate(-45) scale(0.14 -0.14)">
       <defs>
        <path id="TimesNewRomanPSMT-30" d="M 231 2094 
Q 231 2819 450 3342 
Q 669 3866 1031 4122 
Q 1313 4325 1613 4325 
Q 2100 4325 2488 3828 
Q 2972 3213 2972 2159 
Q 2972 1422 2759 906 
Q 2547 391 2217 158 
Q 1888 -75 1581 -75 
Q 975 -75 572 641 
Q 231 1244 231 2094 
z
M 844 2016 
Q 844 1141 1059 588 
Q 1238 122 1591 122 
Q 1759 122 1940 273 
Q 2122 425 2216 781 
Q 2359 1319 2359 2297 
Q 2359 3022 2209 3506 
Q 2097 3866 1919 4016 
Q 1791 4119 1609 4119 
Q 1397 4119 1231 3928 
Q 1006 3669 925 3112 
Q 844 2556 844 2016 
z
" transform="scale(0.015625)"/>
       </defs>
       <use xlink:href="#TimesNewRomanPSMT-30"/>
      </g>
     </g>
    </g>
    <g id="xtick_2">
     <g id="line2d_3">
      <path d="M 142.437881 495.127687 
L 142.437881 51.607687 
" clip-path="url(#p53efa00ec3)" style="fill: none; stroke-dasharray: 2.96,1.28; stroke-dashoffset: 0; stroke: #b0b0b0; stroke-opacity: 0.7; stroke-width: 0.8"/>
     </g>
     <g id="line2d_4">
      <g>
       <use xlink:href="#m5b7f2b5ceb" x="142.437881" y="495.127687" style="stroke: #000000; stroke-width: 0.8"/>
      </g>
     </g>
     <g id="text_2">
      <!-- 2 -->
      <g transform="translate(135.37057 513.951397) rotate(-45) scale(0.14 -0.14)">
       <defs>
        <path id="TimesNewRomanPSMT-32" d="M 2934 816 
L 2638 0 
L 138 0 
L 138 116 
Q 1241 1122 1691 1759 
Q 2141 2397 2141 2925 
Q 2141 3328 1894 3587 
Q 1647 3847 1303 3847 
Q 991 3847 742 3664 
Q 494 3481 375 3128 
L 259 3128 
Q 338 3706 661 4015 
Q 984 4325 1469 4325 
Q 1984 4325 2329 3994 
Q 2675 3663 2675 3213 
Q 2675 2891 2525 2569 
Q 2294 2063 1775 1497 
Q 997 647 803 472 
L 1909 472 
Q 2247 472 2383 497 
Q 2519 522 2628 598 
Q 2738 675 2819 816 
L 2934 816 
z
" transform="scale(0.015625)"/>
       </defs>
       <use xlink:href="#TimesNewRomanPSMT-32"/>
      </g>
     </g>
    </g>
    <g id="xtick_3">
     <g id="line2d_5">
      <path d="M 194.91437 495.127687 
L 194.91437 51.607687 
" clip-path="url(#p53efa00ec3)" style="fill: none; stroke-dasharray: 2.96,1.28; stroke-dashoffset: 0; stroke: #b0b0b0; stroke-opacity: 0.7; stroke-width: 0.8"/>
     </g>
     <g id="line2d_6">
      <g>
       <use xlink:href="#m5b7f2b5ceb" x="194.91437" y="495.127687" style="stroke: #000000; stroke-width: 0.8"/>
      </g>
     </g>
     <g id="text_3">
      <!-- 4 -->
      <g transform="translate(187.847059 513.951397) rotate(-45) scale(0.14 -0.14)">
       <defs>
        <path id="TimesNewRomanPSMT-34" d="M 2978 1563 
L 2978 1119 
L 2409 1119 
L 2409 0 
L 1894 0 
L 1894 1119 
L 100 1119 
L 100 1519 
L 2066 4325 
L 2409 4325 
L 2409 1563 
L 2978 1563 
z
M 1894 1563 
L 1894 3666 
L 406 1563 
L 1894 1563 
z
" transform="scale(0.015625)"/>
       </defs>
       <use xlink:href="#TimesNewRomanPSMT-34"/>
      </g>
     </g>
    </g>
    <g id="xtick_4">
     <g id="line2d_7">
      <path d="M 247.390859 495.127687 
L 247.390859 51.607687 
" clip-path="url(#p53efa00ec3)" style="fill: none; stroke-dasharray: 2.96,1.28; stroke-dashoffset: 0; stroke: #b0b0b0; stroke-opacity: 0.7; stroke-width: 0.8"/>
     </g>
     <g id="line2d_8">
      <g>
       <use xlink:href="#m5b7f2b5ceb" x="247.390859" y="495.127687" style="stroke: #000000; stroke-width: 0.8"/>
      </g>
     </g>
     <g id="text_4">
      <!-- 6 -->
      <g transform="translate(240.323548 513.951397) rotate(-45) scale(0.14 -0.14)">
       <defs>
        <path id="TimesNewRomanPSMT-36" d="M 2869 4325 
L 2869 4209 
Q 2456 4169 2195 4045 
Q 1934 3922 1679 3669 
Q 1425 3416 1258 3105 
Q 1091 2794 978 2366 
Q 1428 2675 1881 2675 
Q 2316 2675 2634 2325 
Q 2953 1975 2953 1425 
Q 2953 894 2631 456 
Q 2244 -75 1606 -75 
Q 1172 -75 869 213 
Q 275 772 275 1663 
Q 275 2231 503 2743 
Q 731 3256 1154 3653 
Q 1578 4050 1965 4187 
Q 2353 4325 2688 4325 
L 2869 4325 
z
M 925 2138 
Q 869 1716 869 1456 
Q 869 1156 980 804 
Q 1091 453 1309 247 
Q 1469 100 1697 100 
Q 1969 100 2183 356 
Q 2397 613 2397 1088 
Q 2397 1622 2184 2012 
Q 1972 2403 1581 2403 
Q 1463 2403 1327 2353 
Q 1191 2303 925 2138 
z
" transform="scale(0.015625)"/>
       </defs>
       <use xlink:href="#TimesNewRomanPSMT-36"/>
      </g>
     </g>
    </g>
    <g id="xtick_5">
     <g id="line2d_9">
      <path d="M 299.867348 495.127687 
L 299.867348 51.607687 
" clip-path="url(#p53efa00ec3)" style="fill: none; stroke-dasharray: 2.96,1.28; stroke-dashoffset: 0; stroke: #b0b0b0; stroke-opacity: 0.7; stroke-width: 0.8"/>
     </g>
     <g id="line2d_10">
      <g>
       <use xlink:href="#m5b7f2b5ceb" x="299.867348" y="495.127687" style="stroke: #000000; stroke-width: 0.8"/>
      </g>
     </g>
     <g id="text_5">
      <!-- 8 -->
      <g transform="translate(292.800037 513.951397) rotate(-45) scale(0.14 -0.14)">
       <defs>
        <path id="TimesNewRomanPSMT-38" d="M 1228 2134 
Q 725 2547 579 2797 
Q 434 3047 434 3316 
Q 434 3728 753 4026 
Q 1072 4325 1600 4325 
Q 2113 4325 2425 4047 
Q 2738 3769 2738 3413 
Q 2738 3175 2569 2928 
Q 2400 2681 1866 2347 
Q 2416 1922 2594 1678 
Q 2831 1359 2831 1006 
Q 2831 559 2490 242 
Q 2150 -75 1597 -75 
Q 994 -75 656 303 
Q 388 606 388 966 
Q 388 1247 577 1523 
Q 766 1800 1228 2134 
z
M 1719 2469 
Q 2094 2806 2194 3001 
Q 2294 3197 2294 3444 
Q 2294 3772 2109 3958 
Q 1925 4144 1606 4144 
Q 1288 4144 1088 3959 
Q 888 3775 888 3528 
Q 888 3366 970 3203 
Q 1053 3041 1206 2894 
L 1719 2469 
z
M 1375 2016 
Q 1116 1797 991 1539 
Q 866 1281 866 981 
Q 866 578 1086 336 
Q 1306 94 1647 94 
Q 1984 94 2187 284 
Q 2391 475 2391 747 
Q 2391 972 2272 1150 
Q 2050 1481 1375 2016 
z
" transform="scale(0.015625)"/>
       </defs>
       <use xlink:href="#TimesNewRomanPSMT-38"/>
      </g>
     </g>
    </g>
    <g id="xtick_6">
     <g id="line2d_11">
      <path d="M 352.343837 495.127687 
L 352.343837 51.607687 
" clip-path="url(#p53efa00ec3)" style="fill: none; stroke-dasharray: 2.96,1.28; stroke-dashoffset: 0; stroke: #b0b0b0; stroke-opacity: 0.7; stroke-width: 0.8"/>
     </g>
     <g id="line2d_12">
      <g>
       <use xlink:href="#m5b7f2b5ceb" x="352.343837" y="495.127687" style="stroke: #000000; stroke-width: 0.8"/>
      </g>
     </g>
     <g id="text_6">
      <!-- 10 -->
      <g transform="translate(340.326778 518.901144) rotate(-45) scale(0.14 -0.14)">
       <defs>
        <path id="TimesNewRomanPSMT-31" d="M 750 3822 
L 1781 4325 
L 1884 4325 
L 1884 747 
Q 1884 391 1914 303 
Q 1944 216 2037 169 
Q 2131 122 2419 116 
L 2419 0 
L 825 0 
L 825 116 
Q 1125 122 1212 167 
Q 1300 213 1334 289 
Q 1369 366 1369 747 
L 1369 3034 
Q 1369 3497 1338 3628 
Q 1316 3728 1258 3775 
Q 1200 3822 1119 3822 
Q 1003 3822 797 3725 
L 750 3822 
z
" transform="scale(0.015625)"/>
       </defs>
       <use xlink:href="#TimesNewRomanPSMT-31"/>
       <use xlink:href="#TimesNewRomanPSMT-30" transform="translate(50 0)"/>
      </g>
     </g>
    </g>
    <g id="xtick_7">
     <g id="line2d_13">
      <path d="M 404.820326 495.127687 
L 404.820326 51.607687 
" clip-path="url(#p53efa00ec3)" style="fill: none; stroke-dasharray: 2.96,1.28; stroke-dashoffset: 0; stroke: #b0b0b0; stroke-opacity: 0.7; stroke-width: 0.8"/>
     </g>
     <g id="line2d_14">
      <g>
       <use xlink:href="#m5b7f2b5ceb" x="404.820326" y="495.127687" style="stroke: #000000; stroke-width: 0.8"/>
      </g>
     </g>
     <g id="text_7">
      <!-- 12 -->
      <g transform="translate(392.803267 518.901144) rotate(-45) scale(0.14 -0.14)">
       <use xlink:href="#TimesNewRomanPSMT-31"/>
       <use xlink:href="#TimesNewRomanPSMT-32" transform="translate(50 0)"/>
      </g>
     </g>
    </g>
    <g id="xtick_8">
     <g id="line2d_15">
      <path d="M 457.296815 495.127687 
L 457.296815 51.607687 
" clip-path="url(#p53efa00ec3)" style="fill: none; stroke-dasharray: 2.96,1.28; stroke-dashoffset: 0; stroke: #b0b0b0; stroke-opacity: 0.7; stroke-width: 0.8"/>
     </g>
     <g id="line2d_16">
      <g>
       <use xlink:href="#m5b7f2b5ceb" x="457.296815" y="495.127687" style="stroke: #000000; stroke-width: 0.8"/>
      </g>
     </g>
     <g id="text_8">
      <!-- 14 -->
      <g transform="translate(445.279756 518.901144) rotate(-45) scale(0.14 -0.14)">
       <use xlink:href="#TimesNewRomanPSMT-31"/>
       <use xlink:href="#TimesNewRomanPSMT-34" transform="translate(50 0)"/>
      </g>
     </g>
    </g>
    <g id="xtick_9">
     <g id="line2d_17">
      <path d="M 509.773304 495.127687 
L 509.773304 51.607687 
" clip-path="url(#p53efa00ec3)" style="fill: none; stroke-dasharray: 2.96,1.28; stroke-dashoffset: 0; stroke: #b0b0b0; stroke-opacity: 0.7; stroke-width: 0.8"/>
     </g>
     <g id="line2d_18">
      <g>
       <use xlink:href="#m5b7f2b5ceb" x="509.773304" y="495.127687" style="stroke: #000000; stroke-width: 0.8"/>
      </g>
     </g>
     <g id="text_9">
      <!-- 16 -->
      <g transform="translate(497.756245 518.901144) rotate(-45) scale(0.14 -0.14)">
       <use xlink:href="#TimesNewRomanPSMT-31"/>
       <use xlink:href="#TimesNewRomanPSMT-36" transform="translate(50 0)"/>
      </g>
     </g>
    </g>
    <g id="xtick_10">
     <g id="line2d_19">
      <path d="M 562.249793 495.127687 
L 562.249793 51.607687 
" clip-path="url(#p53efa00ec3)" style="fill: none; stroke-dasharray: 2.96,1.28; stroke-dashoffset: 0; stroke: #b0b0b0; stroke-opacity: 0.7; stroke-width: 0.8"/>
     </g>
     <g id="line2d_20">
      <g>
       <use xlink:href="#m5b7f2b5ceb" x="562.249793" y="495.127687" style="stroke: #000000; stroke-width: 0.8"/>
      </g>
     </g>
     <g id="text_10">
      <!-- 18 -->
      <g transform="translate(550.232735 518.901144) rotate(-45) scale(0.14 -0.14)">
       <use xlink:href="#TimesNewRomanPSMT-31"/>
       <use xlink:href="#TimesNewRomanPSMT-38" transform="translate(50 0)"/>
      </g>
     </g>
    </g>
    <g id="xtick_11">
     <g id="line2d_21">
      <path d="M 614.726282 495.127687 
L 614.726282 51.607687 
" clip-path="url(#p53efa00ec3)" style="fill: none; stroke-dasharray: 2.96,1.28; stroke-dashoffset: 0; stroke: #b0b0b0; stroke-opacity: 0.7; stroke-width: 0.8"/>
     </g>
     <g id="line2d_22">
      <g>
       <use xlink:href="#m5b7f2b5ceb" x="614.726282" y="495.127687" style="stroke: #000000; stroke-width: 0.8"/>
      </g>
     </g>
     <g id="text_11">
      <!-- 20 -->
      <g transform="translate(602.709224 518.901144) rotate(-45) scale(0.14 -0.14)">
       <use xlink:href="#TimesNewRomanPSMT-32"/>
       <use xlink:href="#TimesNewRomanPSMT-30" transform="translate(50 0)"/>
      </g>
     </g>
    </g>
    <g id="xtick_12">
     <g id="line2d_23">
      <path d="M 667.202771 495.127687 
L 667.202771 51.607687 
" clip-path="url(#p53efa00ec3)" style="fill: none; stroke-dasharray: 2.96,1.28; stroke-dashoffset: 0; stroke: #b0b0b0; stroke-opacity: 0.7; stroke-width: 0.8"/>
     </g>
     <g id="line2d_24">
      <g>
       <use xlink:href="#m5b7f2b5ceb" x="667.202771" y="495.127687" style="stroke: #000000; stroke-width: 0.8"/>
      </g>
     </g>
     <g id="text_12">
      <!-- 22 -->
      <g transform="translate(655.185713 518.901144) rotate(-45) scale(0.14 -0.14)">
       <use xlink:href="#TimesNewRomanPSMT-32"/>
       <use xlink:href="#TimesNewRomanPSMT-32" transform="translate(50 0)"/>
      </g>
     </g>
    </g>
    <g id="xtick_13">
     <g id="line2d_25">
      <path d="M 719.67926 495.127687 
L 719.67926 51.607687 
" clip-path="url(#p53efa00ec3)" style="fill: none; stroke-dasharray: 2.96,1.28; stroke-dashoffset: 0; stroke: #b0b0b0; stroke-opacity: 0.7; stroke-width: 0.8"/>
     </g>
     <g id="line2d_26">
      <g>
       <use xlink:href="#m5b7f2b5ceb" x="719.67926" y="495.127687" style="stroke: #000000; stroke-width: 0.8"/>
      </g>
     </g>
     <g id="text_13">
      <!-- 24 -->
      <g transform="translate(707.662202 518.901144) rotate(-45) scale(0.14 -0.14)">
       <use xlink:href="#TimesNewRomanPSMT-32"/>
       <use xlink:href="#TimesNewRomanPSMT-34" transform="translate(50 0)"/>
      </g>
     </g>
    </g>
    <g id="xtick_14">
     <g id="line2d_27">
      <path d="M 772.155749 495.127687 
L 772.155749 51.607687 
" clip-path="url(#p53efa00ec3)" style="fill: none; stroke-dasharray: 2.96,1.28; stroke-dashoffset: 0; stroke: #b0b0b0; stroke-opacity: 0.7; stroke-width: 0.8"/>
     </g>
     <g id="line2d_28">
      <g>
       <use xlink:href="#m5b7f2b5ceb" x="772.155749" y="495.127687" style="stroke: #000000; stroke-width: 0.8"/>
      </g>
     </g>
     <g id="text_14">
      <!-- 26 -->
      <g transform="translate(760.138691 518.901144) rotate(-45) scale(0.14 -0.14)">
       <use xlink:href="#TimesNewRomanPSMT-32"/>
       <use xlink:href="#TimesNewRomanPSMT-36" transform="translate(50 0)"/>
      </g>
     </g>
    </g>
    <g id="xtick_15">
     <g id="line2d_29">
      <path d="M 824.632238 495.127687 
L 824.632238 51.607687 
" clip-path="url(#p53efa00ec3)" style="fill: none; stroke-dasharray: 2.96,1.28; stroke-dashoffset: 0; stroke: #b0b0b0; stroke-opacity: 0.7; stroke-width: 0.8"/>
     </g>
     <g id="line2d_30">
      <g>
       <use xlink:href="#m5b7f2b5ceb" x="824.632238" y="495.127687" style="stroke: #000000; stroke-width: 0.8"/>
      </g>
     </g>
     <g id="text_15">
      <!-- 28 -->
      <g transform="translate(812.61518 518.901144) rotate(-45) scale(0.14 -0.14)">
       <use xlink:href="#TimesNewRomanPSMT-32"/>
       <use xlink:href="#TimesNewRomanPSMT-38" transform="translate(50 0)"/>
      </g>
     </g>
    </g>
    <g id="text_16">
     <!-- Order Amount Range -->
     <g transform="translate(410.148125 534.739958) scale(0.14 -0.14)">
      <defs>
       <path id="TimesNewRomanPSMT-4f" d="M 2341 4334 
Q 3166 4334 3770 3707 
Q 4375 3081 4375 2144 
Q 4375 1178 3765 540 
Q 3156 -97 2291 -97 
Q 1416 -97 820 525 
Q 225 1147 225 2134 
Q 225 3144 913 3781 
Q 1509 4334 2341 4334 
z
M 2281 4106 
Q 1713 4106 1369 3684 
Q 941 3159 941 2147 
Q 941 1109 1384 550 
Q 1725 125 2284 125 
Q 2881 125 3270 590 
Q 3659 1056 3659 2059 
Q 3659 3147 3231 3681 
Q 2888 4106 2281 4106 
z
" transform="scale(0.015625)"/>
       <path id="TimesNewRomanPSMT-72" d="M 1038 2947 
L 1038 2303 
Q 1397 2947 1775 2947 
Q 1947 2947 2059 2842 
Q 2172 2738 2172 2600 
Q 2172 2478 2090 2393 
Q 2009 2309 1897 2309 
Q 1788 2309 1652 2417 
Q 1516 2525 1450 2525 
Q 1394 2525 1328 2463 
Q 1188 2334 1038 2041 
L 1038 669 
Q 1038 431 1097 309 
Q 1138 225 1241 169 
Q 1344 113 1538 113 
L 1538 0 
L 72 0 
L 72 113 
Q 291 113 397 181 
Q 475 231 506 341 
Q 522 394 522 644 
L 522 1753 
Q 522 2253 501 2348 
Q 481 2444 426 2487 
Q 372 2531 291 2531 
Q 194 2531 72 2484 
L 41 2597 
L 906 2947 
L 1038 2947 
z
" transform="scale(0.015625)"/>
       <path id="TimesNewRomanPSMT-64" d="M 2222 322 
Q 2013 103 1813 7 
Q 1613 -88 1381 -88 
Q 913 -88 563 304 
Q 213 697 213 1313 
Q 213 1928 600 2439 
Q 988 2950 1597 2950 
Q 1975 2950 2222 2709 
L 2222 3238 
Q 2222 3728 2198 3840 
Q 2175 3953 2125 3993 
Q 2075 4034 2000 4034 
Q 1919 4034 1784 3984 
L 1744 4094 
L 2597 4444 
L 2738 4444 
L 2738 1134 
Q 2738 631 2761 520 
Q 2784 409 2836 365 
Q 2888 322 2956 322 
Q 3041 322 3181 375 
L 3216 266 
L 2366 -88 
L 2222 -88 
L 2222 322 
z
M 2222 541 
L 2222 2016 
Q 2203 2228 2109 2403 
Q 2016 2578 1861 2667 
Q 1706 2756 1559 2756 
Q 1284 2756 1069 2509 
Q 784 2184 784 1559 
Q 784 928 1059 592 
Q 1334 256 1672 256 
Q 1956 256 2222 541 
z
" transform="scale(0.015625)"/>
       <path id="TimesNewRomanPSMT-65" d="M 681 1784 
Q 678 1147 991 784 
Q 1303 422 1725 422 
Q 2006 422 2214 576 
Q 2422 731 2563 1106 
L 2659 1044 
Q 2594 616 2278 264 
Q 1963 -88 1488 -88 
Q 972 -88 605 314 
Q 238 716 238 1394 
Q 238 2128 614 2539 
Q 991 2950 1559 2950 
Q 2041 2950 2350 2633 
Q 2659 2316 2659 1784 
L 681 1784 
z
M 681 1966 
L 2006 1966 
Q 1991 2241 1941 2353 
Q 1863 2528 1708 2628 
Q 1553 2728 1384 2728 
Q 1125 2728 920 2526 
Q 716 2325 681 1966 
z
" transform="scale(0.015625)"/>
       <path id="TimesNewRomanPSMT-20" transform="scale(0.015625)"/>
       <path id="TimesNewRomanPSMT-41" d="M 2928 1419 
L 1288 1419 
L 1000 750 
Q 894 503 894 381 
Q 894 284 986 211 
Q 1078 138 1384 116 
L 1384 0 
L 50 0 
L 50 116 
Q 316 163 394 238 
Q 553 388 747 847 
L 2238 4334 
L 2347 4334 
L 3822 809 
Q 4000 384 4145 257 
Q 4291 131 4550 116 
L 4550 0 
L 2878 0 
L 2878 116 
Q 3131 128 3220 200 
Q 3309 272 3309 375 
Q 3309 513 3184 809 
L 2928 1419 
z
M 2841 1650 
L 2122 3363 
L 1384 1650 
L 2841 1650 
z
" transform="scale(0.015625)"/>
       <path id="TimesNewRomanPSMT-6d" d="M 1050 2338 
Q 1363 2650 1419 2697 
Q 1559 2816 1721 2881 
Q 1884 2947 2044 2947 
Q 2313 2947 2506 2790 
Q 2700 2634 2766 2338 
Q 3088 2713 3309 2830 
Q 3531 2947 3766 2947 
Q 3994 2947 4170 2830 
Q 4347 2713 4450 2447 
Q 4519 2266 4519 1878 
L 4519 647 
Q 4519 378 4559 278 
Q 4591 209 4675 161 
Q 4759 113 4950 113 
L 4950 0 
L 3538 0 
L 3538 113 
L 3597 113 
Q 3781 113 3884 184 
Q 3956 234 3988 344 
Q 4000 397 4000 647 
L 4000 1878 
Q 4000 2228 3916 2372 
Q 3794 2572 3525 2572 
Q 3359 2572 3192 2489 
Q 3025 2406 2788 2181 
L 2781 2147 
L 2788 2013 
L 2788 647 
Q 2788 353 2820 281 
Q 2853 209 2943 161 
Q 3034 113 3253 113 
L 3253 0 
L 1806 0 
L 1806 113 
Q 2044 113 2133 169 
Q 2222 225 2256 338 
Q 2272 391 2272 647 
L 2272 1878 
Q 2272 2228 2169 2381 
Q 2031 2581 1784 2581 
Q 1616 2581 1450 2491 
Q 1191 2353 1050 2181 
L 1050 647 
Q 1050 366 1089 281 
Q 1128 197 1204 155 
Q 1281 113 1516 113 
L 1516 0 
L 100 0 
L 100 113 
Q 297 113 375 155 
Q 453 197 493 289 
Q 534 381 534 647 
L 534 1741 
Q 534 2213 506 2350 
Q 484 2453 437 2492 
Q 391 2531 309 2531 
Q 222 2531 100 2484 
L 53 2597 
L 916 2947 
L 1050 2947 
L 1050 2338 
z
" transform="scale(0.015625)"/>
       <path id="TimesNewRomanPSMT-6f" d="M 1600 2947 
Q 2250 2947 2644 2453 
Q 2978 2031 2978 1484 
Q 2978 1100 2793 706 
Q 2609 313 2286 112 
Q 1963 -88 1566 -88 
Q 919 -88 538 428 
Q 216 863 216 1403 
Q 216 1797 411 2186 
Q 606 2575 925 2761 
Q 1244 2947 1600 2947 
z
M 1503 2744 
Q 1338 2744 1170 2645 
Q 1003 2547 900 2300 
Q 797 2053 797 1666 
Q 797 1041 1045 587 
Q 1294 134 1700 134 
Q 2003 134 2200 384 
Q 2397 634 2397 1244 
Q 2397 2006 2069 2444 
Q 1847 2744 1503 2744 
z
" transform="scale(0.015625)"/>
       <path id="TimesNewRomanPSMT-75" d="M 2709 2863 
L 2709 1128 
Q 2709 631 2732 520 
Q 2756 409 2807 365 
Q 2859 322 2928 322 
Q 3025 322 3147 375 
L 3191 266 
L 2334 -88 
L 2194 -88 
L 2194 519 
Q 1825 119 1631 15 
Q 1438 -88 1222 -88 
Q 981 -88 804 51 
Q 628 191 559 409 
Q 491 628 491 1028 
L 491 2306 
Q 491 2509 447 2587 
Q 403 2666 317 2708 
Q 231 2750 6 2747 
L 6 2863 
L 1009 2863 
L 1009 947 
Q 1009 547 1148 422 
Q 1288 297 1484 297 
Q 1619 297 1789 381 
Q 1959 466 2194 703 
L 2194 2325 
Q 2194 2569 2105 2655 
Q 2016 2741 1734 2747 
L 1734 2863 
L 2709 2863 
z
" transform="scale(0.015625)"/>
       <path id="TimesNewRomanPSMT-6e" d="M 1034 2341 
Q 1538 2947 1994 2947 
Q 2228 2947 2397 2830 
Q 2566 2713 2666 2444 
Q 2734 2256 2734 1869 
L 2734 647 
Q 2734 375 2778 278 
Q 2813 200 2889 156 
Q 2966 113 3172 113 
L 3172 0 
L 1756 0 
L 1756 113 
L 1816 113 
Q 2016 113 2095 173 
Q 2175 234 2206 353 
Q 2219 400 2219 647 
L 2219 1819 
Q 2219 2209 2117 2386 
Q 2016 2563 1775 2563 
Q 1403 2563 1034 2156 
L 1034 647 
Q 1034 356 1069 288 
Q 1113 197 1189 155 
Q 1266 113 1500 113 
L 1500 0 
L 84 0 
L 84 113 
L 147 113 
Q 366 113 442 223 
Q 519 334 519 647 
L 519 1709 
Q 519 2225 495 2337 
Q 472 2450 423 2490 
Q 375 2531 294 2531 
Q 206 2531 84 2484 
L 38 2597 
L 900 2947 
L 1034 2947 
L 1034 2341 
z
" transform="scale(0.015625)"/>
       <path id="TimesNewRomanPSMT-74" d="M 1031 3803 
L 1031 2863 
L 1700 2863 
L 1700 2644 
L 1031 2644 
L 1031 788 
Q 1031 509 1111 412 
Q 1191 316 1316 316 
Q 1419 316 1516 380 
Q 1613 444 1666 569 
L 1788 569 
Q 1678 263 1478 108 
Q 1278 -47 1066 -47 
Q 922 -47 784 33 
Q 647 113 581 261 
Q 516 409 516 719 
L 516 2644 
L 63 2644 
L 63 2747 
Q 234 2816 414 2980 
Q 594 3144 734 3369 
Q 806 3488 934 3803 
L 1031 3803 
z
" transform="scale(0.015625)"/>
       <path id="TimesNewRomanPSMT-52" d="M 4325 0 
L 3194 0 
L 1759 1981 
Q 1600 1975 1500 1975 
Q 1459 1975 1412 1976 
Q 1366 1978 1316 1981 
L 1316 750 
Q 1316 350 1403 253 
Q 1522 116 1759 116 
L 1925 116 
L 1925 0 
L 109 0 
L 109 116 
L 269 116 
Q 538 116 653 291 
Q 719 388 719 750 
L 719 3488 
Q 719 3888 631 3984 
Q 509 4122 269 4122 
L 109 4122 
L 109 4238 
L 1653 4238 
Q 2328 4238 2648 4139 
Q 2969 4041 3192 3777 
Q 3416 3513 3416 3147 
Q 3416 2756 3161 2468 
Q 2906 2181 2372 2063 
L 3247 847 
Q 3547 428 3762 290 
Q 3978 153 4325 116 
L 4325 0 
z
M 1316 2178 
Q 1375 2178 1419 2176 
Q 1463 2175 1491 2175 
Q 2097 2175 2405 2437 
Q 2713 2700 2713 3106 
Q 2713 3503 2464 3751 
Q 2216 4000 1806 4000 
Q 1625 4000 1316 3941 
L 1316 2178 
z
" transform="scale(0.015625)"/>
       <path id="TimesNewRomanPSMT-61" d="M 1822 413 
Q 1381 72 1269 19 
Q 1100 -59 909 -59 
Q 613 -59 420 144 
Q 228 347 228 678 
Q 228 888 322 1041 
Q 450 1253 767 1440 
Q 1084 1628 1822 1897 
L 1822 2009 
Q 1822 2438 1686 2597 
Q 1550 2756 1291 2756 
Q 1094 2756 978 2650 
Q 859 2544 859 2406 
L 866 2225 
Q 866 2081 792 2003 
Q 719 1925 600 1925 
Q 484 1925 411 2006 
Q 338 2088 338 2228 
Q 338 2497 613 2722 
Q 888 2947 1384 2947 
Q 1766 2947 2009 2819 
Q 2194 2722 2281 2516 
Q 2338 2381 2338 1966 
L 2338 994 
Q 2338 584 2353 492 
Q 2369 400 2405 369 
Q 2441 338 2488 338 
Q 2538 338 2575 359 
Q 2641 400 2828 588 
L 2828 413 
Q 2478 -56 2159 -56 
Q 2006 -56 1915 50 
Q 1825 156 1822 413 
z
M 1822 616 
L 1822 1706 
Q 1350 1519 1213 1441 
Q 966 1303 859 1153 
Q 753 1003 753 825 
Q 753 600 887 451 
Q 1022 303 1197 303 
Q 1434 303 1822 616 
z
" transform="scale(0.015625)"/>
       <path id="TimesNewRomanPSMT-67" d="M 966 1044 
Q 703 1172 562 1401 
Q 422 1631 422 1909 
Q 422 2334 742 2640 
Q 1063 2947 1563 2947 
Q 1972 2947 2272 2747 
L 2878 2747 
Q 3013 2747 3034 2739 
Q 3056 2731 3066 2713 
Q 3084 2684 3084 2613 
Q 3084 2531 3069 2500 
Q 3059 2484 3036 2475 
Q 3013 2466 2878 2466 
L 2506 2466 
Q 2681 2241 2681 1891 
Q 2681 1491 2375 1206 
Q 2069 922 1553 922 
Q 1341 922 1119 984 
Q 981 866 932 777 
Q 884 688 884 625 
Q 884 572 936 522 
Q 988 472 1138 450 
Q 1225 438 1575 428 
Q 2219 413 2409 384 
Q 2700 344 2873 169 
Q 3047 -6 3047 -263 
Q 3047 -616 2716 -925 
Q 2228 -1381 1444 -1381 
Q 841 -1381 425 -1109 
Q 191 -953 191 -784 
Q 191 -709 225 -634 
Q 278 -519 444 -313 
Q 466 -284 763 25 
Q 600 122 533 198 
Q 466 275 466 372 
Q 466 481 555 628 
Q 644 775 966 1044 
z
M 1509 2797 
Q 1278 2797 1122 2612 
Q 966 2428 966 2047 
Q 966 1553 1178 1281 
Q 1341 1075 1591 1075 
Q 1828 1075 1981 1253 
Q 2134 1431 2134 1813 
Q 2134 2309 1919 2591 
Q 1759 2797 1509 2797 
z
M 934 0 
Q 788 -159 713 -296 
Q 638 -434 638 -550 
Q 638 -700 819 -813 
Q 1131 -1006 1722 -1006 
Q 2284 -1006 2551 -807 
Q 2819 -609 2819 -384 
Q 2819 -222 2659 -153 
Q 2497 -84 2016 -72 
Q 1313 -53 934 0 
z
" transform="scale(0.015625)"/>
      </defs>
      <use xlink:href="#TimesNewRomanPSMT-4f"/>
      <use xlink:href="#TimesNewRomanPSMT-72" transform="translate(72.216797 0)"/>
      <use xlink:href="#TimesNewRomanPSMT-64" transform="translate(105.517578 0)"/>
      <use xlink:href="#TimesNewRomanPSMT-65" transform="translate(155.517578 0)"/>
      <use xlink:href="#TimesNewRomanPSMT-72" transform="translate(199.902344 0)"/>
      <use xlink:href="#TimesNewRomanPSMT-20" transform="translate(233.203125 0)"/>
      <use xlink:href="#TimesNewRomanPSMT-41" transform="translate(252.703125 0)"/>
      <use xlink:href="#TimesNewRomanPSMT-6d" transform="translate(324.919922 0)"/>
      <use xlink:href="#TimesNewRomanPSMT-6f" transform="translate(402.703125 0)"/>
      <use xlink:href="#TimesNewRomanPSMT-75" transform="translate(452.703125 0)"/>
      <use xlink:href="#TimesNewRomanPSMT-6e" transform="translate(502.703125 0)"/>
      <use xlink:href="#TimesNewRomanPSMT-74" transform="translate(552.703125 0)"/>
      <use xlink:href="#TimesNewRomanPSMT-20" transform="translate(580.486328 0)"/>
      <use xlink:href="#TimesNewRomanPSMT-52" transform="translate(605.486328 0)"/>
      <use xlink:href="#TimesNewRomanPSMT-61" transform="translate(672.185547 0)"/>
      <use xlink:href="#TimesNewRomanPSMT-6e" transform="translate(716.570312 0)"/>
      <use xlink:href="#TimesNewRomanPSMT-67" transform="translate(766.570312 0)"/>
      <use xlink:href="#TimesNewRomanPSMT-65" transform="translate(816.570312 0)"/>
     </g>
    </g>
   </g>
   <g id="matplotlib.axis_2">
    <g id="ytick_1">
     <g id="line2d_31">
      <path d="M 51.915938 474.967687 
L 888.915938 474.967687 
" clip-path="url(#p53efa00ec3)" style="fill: none; stroke-dasharray: 2.96,1.28; stroke-dashoffset: 0; stroke: #b0b0b0; stroke-opacity: 0.7; stroke-width: 0.8"/>
     </g>
     <g id="line2d_32">
      <defs>
       <path id="m069b301477" d="M 0 0 
L -3.5 0 
" style="stroke: #000000; stroke-width: 0.8"/>
      </defs>
      <g>
       <use xlink:href="#m069b301477" x="51.915938" y="474.967687" style="stroke: #000000; stroke-width: 0.8"/>
      </g>
     </g>
     <g id="text_17">
      <!-- 0 -->
      <g transform="translate(37.915938 479.828312) scale(0.14 -0.14)">
       <use xlink:href="#TimesNewRomanPSMT-30"/>
      </g>
     </g>
    </g>
    <g id="ytick_2">
     <g id="line2d_33">
      <path d="M 51.915938 394.327687 
L 888.915938 394.327687 
" clip-path="url(#p53efa00ec3)" style="fill: none; stroke-dasharray: 2.96,1.28; stroke-dashoffset: 0; stroke: #b0b0b0; stroke-opacity: 0.7; stroke-width: 0.8"/>
     </g>
     <g id="line2d_34">
      <g>
       <use xlink:href="#m069b301477" x="51.915938" y="394.327687" style="stroke: #000000; stroke-width: 0.8"/>
      </g>
     </g>
     <g id="text_18">
      <!-- 20 -->
      <g transform="translate(30.915938 399.188312) scale(0.14 -0.14)">
       <use xlink:href="#TimesNewRomanPSMT-32"/>
       <use xlink:href="#TimesNewRomanPSMT-30" transform="translate(50 0)"/>
      </g>
     </g>
    </g>
    <g id="ytick_3">
     <g id="line2d_35">
      <path d="M 51.915938 313.687687 
L 888.915938 313.687687 
" clip-path="url(#p53efa00ec3)" style="fill: none; stroke-dasharray: 2.96,1.28; stroke-dashoffset: 0; stroke: #b0b0b0; stroke-opacity: 0.7; stroke-width: 0.8"/>
     </g>
     <g id="line2d_36">
      <g>
       <use xlink:href="#m069b301477" x="51.915938" y="313.687687" style="stroke: #000000; stroke-width: 0.8"/>
      </g>
     </g>
     <g id="text_19">
      <!-- 40 -->
      <g transform="translate(30.915938 318.548312) scale(0.14 -0.14)">
       <use xlink:href="#TimesNewRomanPSMT-34"/>
       <use xlink:href="#TimesNewRomanPSMT-30" transform="translate(50 0)"/>
      </g>
     </g>
    </g>
    <g id="ytick_4">
     <g id="line2d_37">
      <path d="M 51.915938 233.047687 
L 888.915938 233.047687 
" clip-path="url(#p53efa00ec3)" style="fill: none; stroke-dasharray: 2.96,1.28; stroke-dashoffset: 0; stroke: #b0b0b0; stroke-opacity: 0.7; stroke-width: 0.8"/>
     </g>
     <g id="line2d_38">
      <g>
       <use xlink:href="#m069b301477" x="51.915938" y="233.047687" style="stroke: #000000; stroke-width: 0.8"/>
      </g>
     </g>
     <g id="text_20">
      <!-- 60 -->
      <g transform="translate(30.915938 237.908312) scale(0.14 -0.14)">
       <use xlink:href="#TimesNewRomanPSMT-36"/>
       <use xlink:href="#TimesNewRomanPSMT-30" transform="translate(50 0)"/>
      </g>
     </g>
    </g>
    <g id="ytick_5">
     <g id="line2d_39">
      <path d="M 51.915938 152.407687 
L 888.915938 152.407687 
" clip-path="url(#p53efa00ec3)" style="fill: none; stroke-dasharray: 2.96,1.28; stroke-dashoffset: 0; stroke: #b0b0b0; stroke-opacity: 0.7; stroke-width: 0.8"/>
     </g>
     <g id="line2d_40">
      <g>
       <use xlink:href="#m069b301477" x="51.915938" y="152.407687" style="stroke: #000000; stroke-width: 0.8"/>
      </g>
     </g>
     <g id="text_21">
      <!-- 80 -->
      <g transform="translate(30.915938 157.268312) scale(0.14 -0.14)">
       <use xlink:href="#TimesNewRomanPSMT-38"/>
       <use xlink:href="#TimesNewRomanPSMT-30" transform="translate(50 0)"/>
      </g>
     </g>
    </g>
    <g id="ytick_6">
     <g id="line2d_41">
      <path d="M 51.915938 71.767687 
L 888.915938 71.767687 
" clip-path="url(#p53efa00ec3)" style="fill: none; stroke-dasharray: 2.96,1.28; stroke-dashoffset: 0; stroke: #b0b0b0; stroke-opacity: 0.7; stroke-width: 0.8"/>
     </g>
     <g id="line2d_42">
      <g>
       <use xlink:href="#m069b301477" x="51.915938" y="71.767687" style="stroke: #000000; stroke-width: 0.8"/>
      </g>
     </g>
     <g id="text_22">
      <!-- 100 -->
      <g transform="translate(23.915938 76.628312) scale(0.14 -0.14)">
       <use xlink:href="#TimesNewRomanPSMT-31"/>
       <use xlink:href="#TimesNewRomanPSMT-30" transform="translate(50 0)"/>
       <use xlink:href="#TimesNewRomanPSMT-30" transform="translate(100 0)"/>
      </g>
     </g>
    </g>
    <g id="text_23">
     <!-- Success Rate (%) -->
     <g transform="translate(16.92125 322.352375) rotate(-90) scale(0.14 -0.14)">
      <defs>
       <path id="TimesNewRomanPSMT-53" d="M 2934 4334 
L 2934 2869 
L 2819 2869 
Q 2763 3291 2617 3541 
Q 2472 3791 2203 3937 
Q 1934 4084 1647 4084 
Q 1322 4084 1109 3886 
Q 897 3688 897 3434 
Q 897 3241 1031 3081 
Q 1225 2847 1953 2456 
Q 2547 2138 2764 1967 
Q 2981 1797 3098 1565 
Q 3216 1334 3216 1081 
Q 3216 600 2842 251 
Q 2469 -97 1881 -97 
Q 1697 -97 1534 -69 
Q 1438 -53 1133 45 
Q 828 144 747 144 
Q 669 144 623 97 
Q 578 50 556 -97 
L 441 -97 
L 441 1356 
L 556 1356 
Q 638 900 775 673 
Q 913 447 1195 297 
Q 1478 147 1816 147 
Q 2206 147 2432 353 
Q 2659 559 2659 841 
Q 2659 997 2573 1156 
Q 2488 1316 2306 1453 
Q 2184 1547 1640 1851 
Q 1097 2156 867 2337 
Q 638 2519 519 2737 
Q 400 2956 400 3219 
Q 400 3675 750 4004 
Q 1100 4334 1641 4334 
Q 1978 4334 2356 4169 
Q 2531 4091 2603 4091 
Q 2684 4091 2736 4139 
Q 2788 4188 2819 4334 
L 2934 4334 
z
" transform="scale(0.015625)"/>
       <path id="TimesNewRomanPSMT-63" d="M 2631 1088 
Q 2516 522 2178 217 
Q 1841 -88 1431 -88 
Q 944 -88 581 321 
Q 219 731 219 1428 
Q 219 2103 620 2525 
Q 1022 2947 1584 2947 
Q 2006 2947 2278 2723 
Q 2550 2500 2550 2259 
Q 2550 2141 2473 2067 
Q 2397 1994 2259 1994 
Q 2075 1994 1981 2113 
Q 1928 2178 1911 2362 
Q 1894 2547 1784 2644 
Q 1675 2738 1481 2738 
Q 1169 2738 978 2506 
Q 725 2200 725 1697 
Q 725 1184 976 792 
Q 1228 400 1656 400 
Q 1963 400 2206 609 
Q 2378 753 2541 1131 
L 2631 1088 
z
" transform="scale(0.015625)"/>
       <path id="TimesNewRomanPSMT-73" d="M 2050 2947 
L 2050 1972 
L 1947 1972 
Q 1828 2431 1642 2597 
Q 1456 2763 1169 2763 
Q 950 2763 815 2647 
Q 681 2531 681 2391 
Q 681 2216 781 2091 
Q 878 1963 1175 1819 
L 1631 1597 
Q 2266 1288 2266 781 
Q 2266 391 1970 151 
Q 1675 -88 1309 -88 
Q 1047 -88 709 6 
Q 606 38 541 38 
Q 469 38 428 -44 
L 325 -44 
L 325 978 
L 428 978 
Q 516 541 762 319 
Q 1009 97 1316 97 
Q 1531 97 1667 223 
Q 1803 350 1803 528 
Q 1803 744 1651 891 
Q 1500 1038 1047 1263 
Q 594 1488 453 1669 
Q 313 1847 313 2119 
Q 313 2472 555 2709 
Q 797 2947 1181 2947 
Q 1350 2947 1591 2875 
Q 1750 2828 1803 2828 
Q 1853 2828 1881 2850 
Q 1909 2872 1947 2947 
L 2050 2947 
z
" transform="scale(0.015625)"/>
       <path id="TimesNewRomanPSMT-28" d="M 1988 -1253 
L 1988 -1369 
Q 1516 -1131 1200 -813 
Q 750 -359 506 256 
Q 263 872 263 1534 
Q 263 2503 741 3301 
Q 1219 4100 1988 4444 
L 1988 4313 
Q 1603 4100 1356 3731 
Q 1109 3363 987 2797 
Q 866 2231 866 1616 
Q 866 947 969 400 
Q 1050 -31 1165 -292 
Q 1281 -553 1476 -793 
Q 1672 -1034 1988 -1253 
z
" transform="scale(0.015625)"/>
       <path id="TimesNewRomanPSMT-25" d="M 4350 4334 
L 1263 -175 
L 984 -175 
L 4072 4334 
L 4350 4334 
z
M 1138 4334 
Q 1559 4334 1792 3984 
Q 2025 3634 2025 3181 
Q 2025 2638 1762 2341 
Q 1500 2044 1131 2044 
Q 884 2044 678 2180 
Q 472 2316 348 2584 
Q 225 2853 225 3181 
Q 225 3509 350 3786 
Q 475 4063 692 4198 
Q 909 4334 1138 4334 
z
M 1128 4159 
Q 969 4159 845 3971 
Q 722 3784 722 3184 
Q 722 2750 791 2522 
Q 844 2350 956 2256 
Q 1022 2200 1119 2200 
Q 1269 2200 1375 2363 
Q 1531 2603 1531 3166 
Q 1531 3759 1378 4000 
Q 1278 4159 1128 4159 
z
M 4206 2103 
Q 4428 2103 4648 1962 
Q 4869 1822 4989 1553 
Q 5109 1284 5109 963 
Q 5109 409 4843 117 
Q 4578 -175 4216 -175 
Q 3988 -175 3773 -34 
Q 3559 106 3436 367 
Q 3313 628 3313 963 
Q 3313 1291 3436 1562 
Q 3559 1834 3773 1968 
Q 3988 2103 4206 2103 
z
M 4209 1938 
Q 4059 1938 3950 1769 
Q 3809 1550 3809 941 
Q 3809 381 3953 159 
Q 4059 0 4209 0 
Q 4353 0 4466 172 
Q 4616 400 4616 956 
Q 4616 1544 4466 1778 
Q 4363 1938 4209 1938 
z
" transform="scale(0.015625)"/>
       <path id="TimesNewRomanPSMT-29" d="M 144 4313 
L 144 4444 
Q 619 4209 934 3891 
Q 1381 3434 1625 2820 
Q 1869 2206 1869 1541 
Q 1869 572 1392 -226 
Q 916 -1025 144 -1369 
L 144 -1253 
Q 528 -1038 776 -670 
Q 1025 -303 1145 264 
Q 1266 831 1266 1447 
Q 1266 2113 1163 2663 
Q 1084 3094 967 3353 
Q 850 3613 656 3853 
Q 463 4094 144 4313 
z
" transform="scale(0.015625)"/>
      </defs>
      <use xlink:href="#TimesNewRomanPSMT-53"/>
      <use xlink:href="#TimesNewRomanPSMT-75" transform="translate(55.615234 0)"/>
      <use xlink:href="#TimesNewRomanPSMT-63" transform="translate(105.615234 0)"/>
      <use xlink:href="#TimesNewRomanPSMT-63" transform="translate(150 0)"/>
      <use xlink:href="#TimesNewRomanPSMT-65" transform="translate(194.384766 0)"/>
      <use xlink:href="#TimesNewRomanPSMT-73" transform="translate(238.769531 0)"/>
      <use xlink:href="#TimesNewRomanPSMT-73" transform="translate(277.685547 0)"/>
      <use xlink:href="#TimesNewRomanPSMT-20" transform="translate(316.601562 0)"/>
      <use xlink:href="#TimesNewRomanPSMT-52" transform="translate(341.601562 0)"/>
      <use xlink:href="#TimesNewRomanPSMT-61" transform="translate(408.300781 0)"/>
      <use xlink:href="#TimesNewRomanPSMT-74" transform="translate(452.685547 0)"/>
      <use xlink:href="#TimesNewRomanPSMT-65" transform="translate(480.46875 0)"/>
      <use xlink:href="#TimesNewRomanPSMT-20" transform="translate(524.853516 0)"/>
      <use xlink:href="#TimesNewRomanPSMT-28" transform="translate(549.853516 0)"/>
      <use xlink:href="#TimesNewRomanPSMT-25" transform="translate(583.154297 0)"/>
      <use xlink:href="#TimesNewRomanPSMT-29" transform="translate(666.455078 0)"/>
     </g>
    </g>
   </g>
   <g id="line2d_43">
    <path d="M 51.915938 474.967687 
L 888.915938 474.967687 
" clip-path="url(#p53efa00ec3)" style="fill: none; stroke: #808080; stroke-opacity: 0.3; stroke-width: 1.5; stroke-linecap: square"/>
   </g>
   <g id="line2d_44">
    <path d="M 51.915938 273.367687 
L 888.915938 273.367687 
" clip-path="url(#p53efa00ec3)" style="fill: none; stroke-dasharray: 5.55,2.4; stroke-dashoffset: 0; stroke: #808080; stroke-opacity: 0.3; stroke-width: 1.5"/>
   </g>
   <g id="line2d_45">
    <path d="M 51.915938 152.407687 
L 888.915938 152.407687 
" clip-path="url(#p53efa00ec3)" style="fill: none; stroke-dasharray: 5.55,2.4; stroke-dashoffset: 0; stroke: #808080; stroke-opacity: 0.3; stroke-width: 1.5"/>
   </g>
   <g id="line2d_46">
    <path d="M 51.915938 71.767687 
L 888.915938 71.767687 
" clip-path="url(#p53efa00ec3)" style="fill: none; stroke: #808080; stroke-opacity: 0.3; stroke-width: 1.5; stroke-linecap: square"/>
   </g>
   <g id="patch_3">
    <path d="M 51.915938 495.127687 
L 51.915938 51.607687 
" style="fill: none; stroke: #000000; stroke-width: 0.8; stroke-linejoin: miter; stroke-linecap: square"/>
   </g>
   <g id="patch_4">
    <path d="M 888.915938 495.127687 
L 888.915938 51.607687 
" style="fill: none; stroke: #000000; stroke-width: 0.8; stroke-linejoin: miter; stroke-linecap: square"/>
   </g>
   <g id="patch_5">
    <path d="M 51.915938 495.127687 
L 888.915938 495.127687 
" style="fill: none; stroke: #000000; stroke-width: 0.8; stroke-linejoin: miter; stroke-linecap: square"/>
   </g>
   <g id="patch_6">
    <path d="M 51.915938 51.607687 
L 888.915938 51.607687 
" style="fill: none; stroke: #000000; stroke-width: 0.8; stroke-linejoin: miter; stroke-linecap: square"/>
   </g>
   <g id="text_24">
    <!-- Success Rate by Order Amount -->
    <g transform="translate(382.539688 16.92125) scale(0.14 -0.14)">
     <defs>
      <path id="TimesNewRomanPSMT-62" d="M 984 2369 
Q 1400 2947 1881 2947 
Q 2322 2947 2650 2570 
Q 2978 2194 2978 1541 
Q 2978 778 2472 313 
Q 2038 -88 1503 -88 
Q 1253 -88 995 3 
Q 738 94 469 275 
L 469 3241 
Q 469 3728 445 3840 
Q 422 3953 372 3993 
Q 322 4034 247 4034 
Q 159 4034 28 3984 
L -16 4094 
L 844 4444 
L 984 4444 
L 984 2369 
z
M 984 2169 
L 984 456 
Q 1144 300 1314 220 
Q 1484 141 1663 141 
Q 1947 141 2192 453 
Q 2438 766 2438 1363 
Q 2438 1913 2192 2208 
Q 1947 2503 1634 2503 
Q 1469 2503 1303 2419 
Q 1178 2356 984 2169 
z
" transform="scale(0.015625)"/>
      <path id="TimesNewRomanPSMT-79" d="M 38 2863 
L 1372 2863 
L 1372 2747 
L 1306 2747 
Q 1166 2747 1095 2686 
Q 1025 2625 1025 2534 
Q 1025 2413 1128 2197 
L 1825 753 
L 2466 2334 
Q 2519 2463 2519 2588 
Q 2519 2644 2497 2672 
Q 2472 2706 2419 2726 
Q 2366 2747 2231 2747 
L 2231 2863 
L 3163 2863 
L 3163 2747 
Q 3047 2734 2984 2696 
Q 2922 2659 2847 2556 
Q 2819 2513 2741 2316 
L 1575 -541 
Q 1406 -956 1132 -1168 
Q 859 -1381 606 -1381 
Q 422 -1381 303 -1275 
Q 184 -1169 184 -1031 
Q 184 -900 270 -820 
Q 356 -741 506 -741 
Q 609 -741 788 -809 
Q 913 -856 944 -856 
Q 1038 -856 1148 -759 
Q 1259 -663 1372 -384 
L 1575 113 
L 547 2272 
Q 500 2369 397 2513 
Q 319 2622 269 2659 
Q 197 2709 38 2747 
L 38 2863 
z
" transform="scale(0.015625)"/>
     </defs>
     <use xlink:href="#TimesNewRomanPSMT-53"/>
     <use xlink:href="#TimesNewRomanPSMT-75" transform="translate(55.615234 0)"/>
     <use xlink:href="#TimesNewRomanPSMT-63" transform="translate(105.615234 0)"/>
     <use xlink:href="#TimesNewRomanPSMT-63" transform="translate(150 0)"/>
     <use xlink:href="#TimesNewRomanPSMT-65" transform="translate(194.384766 0)"/>
     <use xlink:href="#TimesNewRomanPSMT-73" transform="translate(238.769531 0)"/>
     <use xlink:href="#TimesNewRomanPSMT-73" transform="translate(277.685547 0)"/>
     <use xlink:href="#TimesNewRomanPSMT-20" transform="translate(316.601562 0)"/>
     <use xlink:href="#TimesNewRomanPSMT-52" transform="translate(341.601562 0)"/>
     <use xlink:href="#TimesNewRomanPSMT-61" transform="translate(408.300781 0)"/>
     <use xlink:href="#TimesNewRomanPSMT-74" transform="translate(452.685547 0)"/>
     <use xlink:href="#TimesNewRomanPSMT-65" transform="translate(480.46875 0)"/>
     <use xlink:href="#TimesNewRomanPSMT-20" transform="translate(524.853516 0)"/>
     <use xlink:href="#TimesNewRomanPSMT-62" transform="translate(549.853516 0)"/>
     <use xlink:href="#TimesNewRomanPSMT-79" transform="translate(599.853516 0)"/>
     <use xlink:href="#TimesNewRomanPSMT-20" transform="translate(649.853516 0)"/>
     <use xlink:href="#TimesNewRomanPSMT-4f" transform="translate(674.853516 0)"/>
     <use xlink:href="#TimesNewRomanPSMT-72" transform="translate(747.070312 0)"/>
     <use xlink:href="#TimesNewRomanPSMT-64" transform="translate(780.371094 0)"/>
     <use xlink:href="#TimesNewRomanPSMT-65" transform="translate(830.371094 0)"/>
     <use xlink:href="#TimesNewRomanPSMT-72" transform="translate(874.755859 0)"/>
     <use xlink:href="#TimesNewRomanPSMT-20" transform="translate(908.056641 0)"/>
     <use xlink:href="#TimesNewRomanPSMT-41" transform="translate(927.556641 0)"/>
     <use xlink:href="#TimesNewRomanPSMT-6d" transform="translate(999.773438 0)"/>
     <use xlink:href="#TimesNewRomanPSMT-6f" transform="translate(1077.556641 0)"/>
     <use xlink:href="#TimesNewRomanPSMT-75" transform="translate(1127.556641 0)"/>
     <use xlink:href="#TimesNewRomanPSMT-6e" transform="translate(1177.556641 0)"/>
     <use xlink:href="#TimesNewRomanPSMT-74" transform="translate(1227.556641 0)"/>
    </g>
    <!-- (each point represents ~2241 orders) -->
    <g transform="translate(367.884531 31.607687) scale(0.14 -0.14)">
     <defs>
      <path id="TimesNewRomanPSMT-68" d="M 1041 4444 
L 1041 2350 
Q 1388 2731 1591 2839 
Q 1794 2947 1997 2947 
Q 2241 2947 2416 2812 
Q 2591 2678 2675 2391 
Q 2734 2191 2734 1659 
L 2734 647 
Q 2734 375 2778 275 
Q 2809 200 2884 156 
Q 2959 113 3159 113 
L 3159 0 
L 1753 0 
L 1753 113 
L 1819 113 
Q 2019 113 2097 173 
Q 2175 234 2206 353 
Q 2216 403 2216 647 
L 2216 1659 
Q 2216 2128 2167 2275 
Q 2119 2422 2012 2495 
Q 1906 2569 1756 2569 
Q 1603 2569 1437 2487 
Q 1272 2406 1041 2159 
L 1041 647 
Q 1041 353 1073 281 
Q 1106 209 1195 161 
Q 1284 113 1503 113 
L 1503 0 
L 84 0 
L 84 113 
Q 275 113 384 172 
Q 447 203 484 290 
Q 522 378 522 647 
L 522 3238 
Q 522 3728 498 3840 
Q 475 3953 426 3993 
Q 378 4034 297 4034 
Q 231 4034 84 3984 
L 41 4094 
L 897 4444 
L 1041 4444 
z
" transform="scale(0.015625)"/>
      <path id="TimesNewRomanPSMT-70" d="M -6 2578 
L 875 2934 
L 994 2934 
L 994 2266 
Q 1216 2644 1439 2795 
Q 1663 2947 1909 2947 
Q 2341 2947 2628 2609 
Q 2981 2197 2981 1534 
Q 2981 794 2556 309 
Q 2206 -88 1675 -88 
Q 1444 -88 1275 -22 
Q 1150 25 994 166 
L 994 -706 
Q 994 -1000 1030 -1079 
Q 1066 -1159 1155 -1206 
Q 1244 -1253 1478 -1253 
L 1478 -1369 
L -22 -1369 
L -22 -1253 
L 56 -1253 
Q 228 -1256 350 -1188 
Q 409 -1153 442 -1076 
Q 475 -1000 475 -688 
L 475 2019 
Q 475 2297 450 2372 
Q 425 2447 370 2484 
Q 316 2522 222 2522 
Q 147 2522 31 2478 
L -6 2578 
z
M 994 2081 
L 994 1013 
Q 994 666 1022 556 
Q 1066 375 1236 237 
Q 1406 100 1666 100 
Q 1978 100 2172 344 
Q 2425 663 2425 1241 
Q 2425 1897 2138 2250 
Q 1938 2494 1663 2494 
Q 1513 2494 1366 2419 
Q 1253 2363 994 2081 
z
" transform="scale(0.015625)"/>
      <path id="TimesNewRomanPSMT-69" d="M 928 4444 
Q 1059 4444 1151 4351 
Q 1244 4259 1244 4128 
Q 1244 3997 1151 3903 
Q 1059 3809 928 3809 
Q 797 3809 703 3903 
Q 609 3997 609 4128 
Q 609 4259 701 4351 
Q 794 4444 928 4444 
z
M 1188 2947 
L 1188 647 
Q 1188 378 1227 289 
Q 1266 200 1342 156 
Q 1419 113 1622 113 
L 1622 0 
L 231 0 
L 231 113 
Q 441 113 512 153 
Q 584 194 626 287 
Q 669 381 669 647 
L 669 1750 
Q 669 2216 641 2353 
Q 619 2453 572 2492 
Q 525 2531 444 2531 
Q 356 2531 231 2484 
L 188 2597 
L 1050 2947 
L 1188 2947 
z
" transform="scale(0.015625)"/>
      <path id="TimesNewRomanPSMT-7e" d="M 3256 2109 
L 3397 2109 
Q 3384 1703 3165 1473 
Q 2947 1244 2631 1244 
Q 2488 1244 2322 1292 
Q 2156 1341 1466 1622 
Q 984 1822 781 1822 
Q 563 1822 413 1687 
Q 263 1553 200 1250 
L 63 1250 
Q 81 1672 293 1895 
Q 506 2119 794 2119 
Q 931 2119 1075 2075 
Q 1400 1981 1929 1754 
Q 2459 1528 2675 1528 
Q 2909 1528 3068 1678 
Q 3228 1828 3256 2109 
z
" transform="scale(0.015625)"/>
     </defs>
     <use xlink:href="#TimesNewRomanPSMT-28"/>
     <use xlink:href="#TimesNewRomanPSMT-65" transform="translate(33.300781 0)"/>
     <use xlink:href="#TimesNewRomanPSMT-61" transform="translate(77.685547 0)"/>
     <use xlink:href="#TimesNewRomanPSMT-63" transform="translate(122.070312 0)"/>
     <use xlink:href="#TimesNewRomanPSMT-68" transform="translate(166.455078 0)"/>
     <use xlink:href="#TimesNewRomanPSMT-20" transform="translate(216.455078 0)"/>
     <use xlink:href="#TimesNewRomanPSMT-70" transform="translate(241.455078 0)"/>
     <use xlink:href="#TimesNewRomanPSMT-6f" transform="translate(291.455078 0)"/>
     <use xlink:href="#TimesNewRomanPSMT-69" transform="translate(341.455078 0)"/>
     <use xlink:href="#TimesNewRomanPSMT-6e" transform="translate(369.238281 0)"/>
     <use xlink:href="#TimesNewRomanPSMT-74" transform="translate(419.238281 0)"/>
     <use xlink:href="#TimesNewRomanPSMT-20" transform="translate(447.021484 0)"/>
     <use xlink:href="#TimesNewRomanPSMT-72" transform="translate(472.021484 0)"/>
     <use xlink:href="#TimesNewRomanPSMT-65" transform="translate(505.322266 0)"/>
     <use xlink:href="#TimesNewRomanPSMT-70" transform="translate(549.707031 0)"/>
     <use xlink:href="#TimesNewRomanPSMT-72" transform="translate(599.707031 0)"/>
     <use xlink:href="#TimesNewRomanPSMT-65" transform="translate(633.007812 0)"/>
     <use xlink:href="#TimesNewRomanPSMT-73" transform="translate(677.392578 0)"/>
     <use xlink:href="#TimesNewRomanPSMT-65" transform="translate(716.308594 0)"/>
     <use xlink:href="#TimesNewRomanPSMT-6e" transform="translate(760.693359 0)"/>
     <use xlink:href="#TimesNewRomanPSMT-74" transform="translate(810.693359 0)"/>
     <use xlink:href="#TimesNewRomanPSMT-73" transform="translate(838.476562 0)"/>
     <use xlink:href="#TimesNewRomanPSMT-20" transform="translate(877.392578 0)"/>
     <use xlink:href="#TimesNewRomanPSMT-7e" transform="translate(902.392578 0)"/>
     <use xlink:href="#TimesNewRomanPSMT-32" transform="translate(956.494141 0)"/>
     <use xlink:href="#TimesNewRomanPSMT-32" transform="translate(1006.494141 0)"/>
     <use xlink:href="#TimesNewRomanPSMT-34" transform="translate(1056.494141 0)"/>
     <use xlink:href="#TimesNewRomanPSMT-31" transform="translate(1106.494141 0)"/>
     <use xlink:href="#TimesNewRomanPSMT-20" transform="translate(1156.494141 0)"/>
     <use xlink:href="#TimesNewRomanPSMT-6f" transform="translate(1181.494141 0)"/>
     <use xlink:href="#TimesNewRomanPSMT-72" transform="translate(1231.494141 0)"/>
     <use xlink:href="#TimesNewRomanPSMT-64" transform="translate(1264.794922 0)"/>
     <use xlink:href="#TimesNewRomanPSMT-65" transform="translate(1314.794922 0)"/>
     <use xlink:href="#TimesNewRomanPSMT-72" transform="translate(1359.179688 0)"/>
     <use xlink:href="#TimesNewRomanPSMT-73" transform="translate(1392.480469 0)"/>
     <use xlink:href="#TimesNewRomanPSMT-29" transform="translate(1431.396484 0)"/>
    </g>
   </g>
   <g id="legend_1">
    <g id="patch_7">
     <path d="M 763.2675 102.024875 
L 881.915938 102.024875 
Q 883.915938 102.024875 883.915938 100.024875 
L 883.915938 58.607687 
Q 883.915938 56.607687 881.915938 56.607687 
L 763.2675 56.607687 
Q 761.2675 56.607687 761.2675 58.607687 
L 761.2675 100.024875 
Q 761.2675 102.024875 763.2675 102.024875 
z
" style="fill: #ffffff; opacity: 0.8; stroke: #cccccc; stroke-linejoin: miter"/>
    </g>
    <g id="line2d_47">
     <path d="M 765.2675 64.107687 
L 775.2675 64.107687 
L 785.2675 64.107687 
" style="fill: none; stroke: #ffffff; stroke-width: 1.5; stroke-linecap: square"/>
     <defs>
      <path id="me62a75ba90" d="M 0 5 
C 1.326016 5 2.597899 4.473168 3.535534 3.535534 
C 4.473168 2.597899 5 1.326016 5 0 
C 5 -1.326016 4.473168 -2.597899 3.535534 -3.535534 
C 2.597899 -4.473168 1.326016 -5 0 -5 
C -1.326016 -5 -2.597899 -4.473168 -3.535534 -3.535534 
C -4.473168 -2.597899 -5 -1.326016 -5 0 
C -5 1.326016 -4.473168 2.597899 -3.535534 3.535534 
C -2.597899 4.473168 -1.326016 5 0 5 
z
" style="stroke: #ffffff"/>
     </defs>
     <g>
      <use xlink:href="#me62a75ba90" x="775.2675" y="64.107687" style="fill: #87ceeb; stroke: #ffffff"/>
     </g>
    </g>
    <g id="text_25">
     <!-- Success Rate &lt; 50% -->
     <g transform="translate(793.2675 67.607687) scale(0.1 -0.1)">
      <defs>
       <path id="TimesNewRomanPSMT-3c" d="M 116 2206 
L 3478 3663 
L 3478 3391 
L 584 2134 
L 3478 866 
L 3478 584 
L 116 2053 
L 116 2206 
z
" transform="scale(0.015625)"/>
       <path id="TimesNewRomanPSMT-35" d="M 2778 4238 
L 2534 3706 
L 1259 3706 
L 981 3138 
Q 1809 3016 2294 2522 
Q 2709 2097 2709 1522 
Q 2709 1188 2573 903 
Q 2438 619 2231 419 
Q 2025 219 1772 97 
Q 1413 -75 1034 -75 
Q 653 -75 479 54 
Q 306 184 306 341 
Q 306 428 378 495 
Q 450 563 559 563 
Q 641 563 702 538 
Q 763 513 909 409 
Q 1144 247 1384 247 
Q 1750 247 2026 523 
Q 2303 800 2303 1197 
Q 2303 1581 2056 1914 
Q 1809 2247 1375 2428 
Q 1034 2569 447 2591 
L 1259 4238 
L 2778 4238 
z
" transform="scale(0.015625)"/>
      </defs>
      <use xlink:href="#TimesNewRomanPSMT-53"/>
      <use xlink:href="#TimesNewRomanPSMT-75" transform="translate(55.615234 0)"/>
      <use xlink:href="#TimesNewRomanPSMT-63" transform="translate(105.615234 0)"/>
      <use xlink:href="#TimesNewRomanPSMT-63" transform="translate(150 0)"/>
      <use xlink:href="#TimesNewRomanPSMT-65" transform="translate(194.384766 0)"/>
      <use xlink:href="#TimesNewRomanPSMT-73" transform="translate(238.769531 0)"/>
      <use xlink:href="#TimesNewRomanPSMT-73" transform="translate(277.685547 0)"/>
      <use xlink:href="#TimesNewRomanPSMT-20" transform="translate(316.601562 0)"/>
      <use xlink:href="#TimesNewRomanPSMT-52" transform="translate(341.601562 0)"/>
      <use xlink:href="#TimesNewRomanPSMT-61" transform="translate(408.300781 0)"/>
      <use xlink:href="#TimesNewRomanPSMT-74" transform="translate(452.685547 0)"/>
      <use xlink:href="#TimesNewRomanPSMT-65" transform="translate(480.46875 0)"/>
      <use xlink:href="#TimesNewRomanPSMT-20" transform="translate(524.853516 0)"/>
      <use xlink:href="#TimesNewRomanPSMT-3c" transform="translate(549.853516 0)"/>
      <use xlink:href="#TimesNewRomanPSMT-20" transform="translate(606.25 0)"/>
      <use xlink:href="#TimesNewRomanPSMT-35" transform="translate(631.25 0)"/>
      <use xlink:href="#TimesNewRomanPSMT-30" transform="translate(681.25 0)"/>
      <use xlink:href="#TimesNewRomanPSMT-25" transform="translate(731.25 0)"/>
     </g>
    </g>
    <g id="line2d_48">
     <path d="M 765.2675 78.24675 
L 775.2675 78.24675 
L 785.2675 78.24675 
" style="fill: none; stroke: #ffffff; stroke-width: 1.5; stroke-linecap: square"/>
     <defs>
      <path id="mde5d7b6c9d" d="M 0 5 
C 1.326016 5 2.597899 4.473168 3.535534 3.535534 
C 4.473168 2.597899 5 1.326016 5 0 
C 5 -1.326016 4.473168 -2.597899 3.535534 -3.535534 
C 2.597899 -4.473168 1.326016 -5 0 -5 
C -1.326016 -5 -2.597899 -4.473168 -3.535534 -3.535534 
C -4.473168 -2.597899 -5 -1.326016 -5 0 
C -5 1.326016 -4.473168 2.597899 -3.535534 3.535534 
C -2.597899 4.473168 -1.326016 5 0 5 
z
" style="stroke: #ffffff"/>
     </defs>
     <g>
      <use xlink:href="#mde5d7b6c9d" x="775.2675" y="78.24675" style="fill: #4169e1; stroke: #ffffff"/>
     </g>
    </g>
    <g id="text_26">
     <!-- Success Rate 50-80% -->
     <g transform="translate(793.2675 81.74675) scale(0.1 -0.1)">
      <defs>
       <path id="TimesNewRomanPSMT-2d" d="M 259 1672 
L 1875 1672 
L 1875 1200 
L 259 1200 
L 259 1672 
z
" transform="scale(0.015625)"/>
      </defs>
      <use xlink:href="#TimesNewRomanPSMT-53"/>
      <use xlink:href="#TimesNewRomanPSMT-75" transform="translate(55.615234 0)"/>
      <use xlink:href="#TimesNewRomanPSMT-63" transform="translate(105.615234 0)"/>
      <use xlink:href="#TimesNewRomanPSMT-63" transform="translate(150 0)"/>
      <use xlink:href="#TimesNewRomanPSMT-65" transform="translate(194.384766 0)"/>
      <use xlink:href="#TimesNewRomanPSMT-73" transform="translate(238.769531 0)"/>
      <use xlink:href="#TimesNewRomanPSMT-73" transform="translate(277.685547 0)"/>
      <use xlink:href="#TimesNewRomanPSMT-20" transform="translate(316.601562 0)"/>
      <use xlink:href="#TimesNewRomanPSMT-52" transform="translate(341.601562 0)"/>
      <use xlink:href="#TimesNewRomanPSMT-61" transform="translate(408.300781 0)"/>
      <use xlink:href="#TimesNewRomanPSMT-74" transform="translate(452.685547 0)"/>
      <use xlink:href="#TimesNewRomanPSMT-65" transform="translate(480.46875 0)"/>
      <use xlink:href="#TimesNewRomanPSMT-20" transform="translate(524.853516 0)"/>
      <use xlink:href="#TimesNewRomanPSMT-35" transform="translate(549.853516 0)"/>
      <use xlink:href="#TimesNewRomanPSMT-30" transform="translate(599.853516 0)"/>
      <use xlink:href="#TimesNewRomanPSMT-2d" transform="translate(649.853516 0)"/>
      <use xlink:href="#TimesNewRomanPSMT-38" transform="translate(683.154297 0)"/>
      <use xlink:href="#TimesNewRomanPSMT-30" transform="translate(733.154297 0)"/>
      <use xlink:href="#TimesNewRomanPSMT-25" transform="translate(783.154297 0)"/>
     </g>
    </g>
    <g id="line2d_49">
     <path d="M 765.2675 92.385812 
L 775.2675 92.385812 
L 785.2675 92.385812 
" style="fill: none; stroke: #ffffff; stroke-width: 1.5; stroke-linecap: square"/>
     <defs>
      <path id="m0163ffbb71" d="M 0 5 
C 1.326016 5 2.597899 4.473168 3.535534 3.535534 
C 4.473168 2.597899 5 1.326016 5 0 
C 5 -1.326016 4.473168 -2.597899 3.535534 -3.535534 
C 2.597899 -4.473168 1.326016 -5 0 -5 
C -1.326016 -5 -2.597899 -4.473168 -3.535534 -3.535534 
C -4.473168 -2.597899 -5 -1.326016 -5 0 
C -5 1.326016 -4.473168 2.597899 -3.535534 3.535534 
C -2.597899 4.473168 -1.326016 5 0 5 
z
" style="stroke: #ffffff"/>
     </defs>
     <g>
      <use xlink:href="#m0163ffbb71" x="775.2675" y="92.385812" style="fill: #000080; stroke: #ffffff"/>
     </g>
    </g>
    <g id="text_27">
     <!-- Success Rate &gt; 80% -->
     <g transform="translate(793.2675 95.885812) scale(0.1 -0.1)">
      <defs>
       <path id="TimesNewRomanPSMT-3e" d="M 3478 2041 
L 116 584 
L 116 853 
L 3013 2109 
L 116 3378 
L 116 3663 
L 3478 2194 
L 3478 2041 
z
" transform="scale(0.015625)"/>
      </defs>
      <use xlink:href="#TimesNewRomanPSMT-53"/>
      <use xlink:href="#TimesNewRomanPSMT-75" transform="translate(55.615234 0)"/>
      <use xlink:href="#TimesNewRomanPSMT-63" transform="translate(105.615234 0)"/>
      <use xlink:href="#TimesNewRomanPSMT-63" transform="translate(150 0)"/>
      <use xlink:href="#TimesNewRomanPSMT-65" transform="translate(194.384766 0)"/>
      <use xlink:href="#TimesNewRomanPSMT-73" transform="translate(238.769531 0)"/>
      <use xlink:href="#TimesNewRomanPSMT-73" transform="translate(277.685547 0)"/>
      <use xlink:href="#TimesNewRomanPSMT-20" transform="translate(316.601562 0)"/>
      <use xlink:href="#TimesNewRomanPSMT-52" transform="translate(341.601562 0)"/>
      <use xlink:href="#TimesNewRomanPSMT-61" transform="translate(408.300781 0)"/>
      <use xlink:href="#TimesNewRomanPSMT-74" transform="translate(452.685547 0)"/>
      <use xlink:href="#TimesNewRomanPSMT-65" transform="translate(480.46875 0)"/>
      <use xlink:href="#TimesNewRomanPSMT-20" transform="translate(524.853516 0)"/>
      <use xlink:href="#TimesNewRomanPSMT-3e" transform="translate(549.853516 0)"/>
      <use xlink:href="#TimesNewRomanPSMT-20" transform="translate(606.25 0)"/>
      <use xlink:href="#TimesNewRomanPSMT-38" transform="translate(631.25 0)"/>
      <use xlink:href="#TimesNewRomanPSMT-30" transform="translate(681.25 0)"/>
      <use xlink:href="#TimesNewRomanPSMT-25" transform="translate(731.25 0)"/>
     </g>
    </g>
   </g>
  </g>
 </g>
 <defs>
  <clipPath id="p53efa00ec3">
   <rect x="51.915938" y="51.607687" width="837" height="443.52"/>
  </clipPath>
 </defs>
</svg>
